<svg version="1.1" id="Layer_1" xmlns="http://www.w3.org/2000/svg" xmlns:xlink="http://www.w3.org/1999/xlink" x="0px" y="0px"
	 width="100%" viewBox="0 0 433 116" enable-background="new 0 0 433 116" xml:space="preserve">
<path fill="#FEFDFE" opacity="1.000000" stroke="none" 
	d="
M316.000000,117.000000 
	C210.666672,117.000000 105.833359,117.000000 1.000028,117.000000 
	C1.000019,78.333351 1.000019,39.666702 1.000009,1.000039 
	C145.333298,1.000026 289.666595,1.000026 433.999939,1.000013 
	C433.999939,39.666630 433.999939,78.333260 433.999969,116.999939 
	C394.833344,117.000000 355.666656,117.000000 316.000000,117.000000 
M427.056183,110.957428 
	C427.056183,110.957428 427.082031,111.169067 427.082031,111.169067 
	C427.082031,111.169067 426.959503,111.026794 426.893219,110.193321 
	C426.114777,107.225754 425.434509,104.226288 424.487946,101.313347 
	C424.255371,100.597694 423.139038,99.705811 422.455750,99.727760 
	C421.744110,99.750626 420.730255,100.646149 420.429779,101.393723 
	C419.183563,104.494514 418.157074,107.683617 417.049896,110.840294 
	C420.702148,108.267479 423.871674,108.628426 427.056183,110.957428 
M34.380405,78.958847 
	C25.914450,61.305752 31.698576,42.554115 48.186115,34.155006 
	C61.907223,27.165182 83.163055,29.726385 93.317604,50.822350 
	C97.931496,48.042366 97.244026,44.744583 94.365685,41.107594 
	C85.622917,30.060490 75.068169,24.150841 60.168316,25.625959 
	C51.196743,26.514166 43.642139,28.965685 37.085930,34.808952 
	C17.018604,52.694096 22.388775,87.725098 47.198463,96.678658 
	C45.987148,93.781601 44.444550,91.065086 42.549095,88.622375 
	C40.117481,85.488708 37.402168,82.575195 34.380405,78.958847 
M333.551392,66.974243 
	C336.225891,70.771614 339.141815,74.426208 341.498749,78.411392 
	C343.398132,81.622902 345.716278,82.025047 348.716736,81.091209 
	C348.716736,69.600357 348.716736,58.367481 348.716736,47.364220 
	C346.361755,47.364220 344.304688,47.364220 341.843994,47.364220 
	C341.843994,54.050434 341.843994,60.391396 341.843994,67.673424 
	C337.352386,61.323685 333.310211,55.907955 329.616638,50.264084 
	C327.716309,47.360332 325.616058,46.162445 322.299622,47.408352 
	C322.299622,58.709694 322.299622,69.925102 322.299622,81.184006 
	C324.651062,81.184006 326.726501,81.184006 329.189148,81.184006 
	C329.189148,74.535957 329.189148,68.166229 329.189148,60.864681 
	C330.878876,63.257259 331.992706,64.834381 333.551392,66.974243 
M308.681793,66.113625 
	C309.789978,53.213669 298.114594,43.086517 284.555511,47.621868 
	C276.345306,50.368084 271.689545,58.721077 273.054169,67.425682 
	C274.332886,75.582283 281.688446,81.946068 290.053528,82.132950 
	C299.794617,82.350571 306.455170,76.862114 308.681793,66.113625 
M109.972343,82.018936 
	C111.135536,82.054504 112.299332,82.134178 113.461838,82.118576 
	C121.782494,82.006920 128.397095,76.819366 130.515869,68.767029 
	C132.501694,61.219978 129.193527,53.118515 122.444054,48.999687 
	C115.876350,44.991783 106.404770,46.096436 100.754570,51.327015 
	C91.218872,60.154530 93.953758,78.101624 109.972343,82.018936 
M52.293873,71.949982 
	C52.176830,73.289726 51.467903,75.000282 52.037678,75.909729 
	C56.091171,82.379776 68.311241,83.509712 73.745888,78.092705 
	C78.158791,73.694145 77.092987,66.699211 71.490173,63.859341 
	C68.227341,62.205509 64.729614,60.976540 61.602848,59.111652 
	C60.342896,58.360176 59.792114,56.419670 58.918583,55.020302 
	C60.511993,54.098980 62.290791,52.208672 63.657902,52.470219 
	C66.057915,52.929375 68.205811,54.706345 70.653831,56.037094 
	C74.248863,54.197216 75.029366,52.854183 73.637093,50.510311 
	C71.443298,46.817097 64.591721,44.661385 59.081173,46.591824 
	C55.379444,47.888607 52.140854,50.155403 51.932144,54.912724 
	C51.700260,60.198231 53.565536,62.998657 59.394531,65.225334 
	C61.714283,66.111488 64.230682,66.607239 66.369759,67.797806 
	C67.770851,68.577629 69.294022,70.178879 69.533325,71.616791 
	C69.677925,72.485641 67.623245,74.007904 66.292007,74.780304 
	C62.517578,76.970284 59.661808,74.733421 57.720726,71.963821 
	C55.916061,69.388855 54.625183,70.431618 52.293873,71.949982 
M180.445663,47.021980 
	C179.030411,47.107502 177.615143,47.193024 176.077530,47.285938 
	C176.077530,55.355309 175.860718,63.011837 176.141815,70.650040 
	C176.395401,77.540924 181.126190,81.802368 188.122223,82.106522 
	C195.754547,82.438324 201.667343,78.972145 202.009048,73.008583 
	C202.499313,64.452034 202.134094,55.846466 202.134094,47.325768 
	C199.851990,47.325768 197.955109,47.325768 195.876114,47.325768 
	C195.876114,54.944733 195.951309,62.261620 195.847839,69.575981 
	C195.785980,73.948624 193.036804,75.844215 189.000748,75.708206 
	C185.176376,75.579346 182.866257,73.695984 182.958908,69.430794 
	C183.092743,63.270157 183.093033,57.102196 182.931442,50.943104 
	C182.896866,49.625500 181.925797,48.332470 180.445663,47.021980 
M230.937408,57.573162 
	C231.030991,56.300800 231.124573,55.028442 231.243256,53.414711 
	C234.326630,53.414711 237.089096,53.414711 239.797882,53.414711 
	C239.797882,51.119244 239.797882,49.194263 239.797882,47.357788 
	C231.341721,47.357788 223.136551,47.357788 214.742798,47.357788 
	C214.870605,49.622589 214.978088,51.527542 215.108093,53.831596 
	C218.319687,53.831596 221.046371,53.831596 224.077682,53.831596 
	C224.077682,63.195511 224.077682,72.127510 224.077682,81.216919 
	C226.491470,81.216919 228.567734,81.216919 230.937363,81.216919 
	C230.937363,73.489136 230.937363,66.023628 230.937408,57.573162 
M385.961304,57.520569 
	C385.961304,65.426231 385.961304,73.331902 385.961304,81.532669 
	C390.346405,81.532669 394.145966,81.536148 397.945526,81.530579 
	C399.108337,81.528870 400.277252,81.574310 401.432770,81.474670 
	C406.380310,81.048012 410.325409,77.985428 409.998138,73.610497 
	C409.730347,70.030663 407.759552,66.578217 406.327118,62.444103 
	C408.146759,60.772659 410.564087,57.342159 408.294983,53.536499 
	C406.697571,50.857388 403.656677,47.980480 400.789429,47.356842 
	C396.101898,46.337296 391.030853,47.081211 385.961304,47.081211 
	C385.961304,50.576691 385.961304,53.553406 385.961304,57.520569 
M164.228134,75.620964 
	C160.008102,75.310097 155.788071,74.999229 151.162277,74.658470 
	C151.162277,65.531860 151.162277,56.467293 151.162277,47.237717 
	C148.841644,47.237717 146.936493,47.237717 144.945160,47.237717 
	C144.945160,58.666454 144.945160,69.882141 144.945160,81.212219 
	C151.444580,81.212219 157.668213,81.212219 164.329254,81.212219 
	C164.329254,79.536751 164.329254,78.074036 164.228134,75.620964 
M259.220459,50.617645 
	C259.714294,44.451748 255.434158,47.849140 252.996613,47.086414 
	C252.996613,58.710785 252.996613,69.899940 252.996613,81.176102 
	C255.160645,81.176102 257.060730,81.176102 259.220520,81.176102 
	C259.220520,71.130409 259.220520,61.360691 259.220459,50.617645 
M50.303848,102.175629 
	C49.182037,102.979576 47.149460,103.787064 47.152557,104.586655 
	C47.157177,105.776497 48.336754,107.536377 49.472679,108.055931 
	C58.216728,112.055344 67.128441,112.376717 75.898285,108.173859 
	C77.427094,107.441193 78.425789,105.602394 79.669327,104.274467 
	C79.403358,103.785774 79.137390,103.297081 78.871422,102.808388 
	C69.602356,102.877235 60.138992,107.876007 50.303848,102.175629 
M88.147881,91.671669 
	C90.962868,88.483192 93.777855,85.294716 96.585495,82.114571 
	C94.960632,80.120995 93.817726,78.718735 92.247063,76.791649 
	C90.345505,85.328606 79.818466,87.777786 78.871048,98.148560 
	C82.473557,95.667450 85.035973,93.902672 88.147881,91.671669 
M428.033569,61.505379 
	C428.033569,56.692257 428.033569,51.879135 428.033569,45.985626 
	C424.628510,50.292210 425.003540,79.419952 428.033569,81.597351 
	C428.033569,75.029594 428.033569,68.766426 428.033569,61.505379 
M410.827118,99.849541 
	C408.924377,100.297485 405.863922,100.177361 405.317535,101.290855 
	C402.836823,106.346428 409.580902,105.365494 411.111206,109.190514 
	C408.541870,108.742653 406.670288,108.416420 404.798737,108.090187 
	C404.614288,108.598541 404.429871,109.106888 404.245422,109.615242 
	C405.985138,110.245705 407.713806,111.308807 409.468414,111.353531 
	C410.625580,111.383018 411.820129,109.947411 412.997955,109.167816 
	C411.241486,106.829239 409.484985,104.490662 407.430267,101.755020 
	C408.506073,101.990356 409.612396,102.417999 410.690033,102.354958 
	C411.013153,102.336052 411.256165,100.948357 410.827118,99.849541 
M367.461273,59.492870 
	C365.959869,60.881714 363.824738,62.044220 363.214966,63.751534 
	C362.893097,64.652779 364.982361,67.165070 366.446198,67.713463 
	C367.587463,68.140999 370.772247,66.589325 370.743195,66.038963 
	C370.639771,64.081139 369.564209,62.169975 368.818909,60.255867 
	C368.708679,59.972847 368.394653,59.769199 367.461273,59.492870 
M9.701339,65.027054 
	C10.192073,65.036652 10.768411,65.218666 11.158289,65.025108 
	C12.617985,64.300430 14.016699,63.452915 15.438277,62.651455 
	C14.723317,61.538155 14.076259,59.547226 13.279927,59.485615 
	C11.339428,59.335472 9.329730,60.079708 7.347897,60.463787 
	C7.861402,61.931652 8.374906,63.399513 9.701339,65.027054 
M23.790743,23.039860 
	C19.922222,25.965904 22.969297,27.984337 25.025236,29.493830 
	C25.964914,30.183750 28.027830,29.343809 29.581318,29.197714 
	C28.675951,27.324890 27.882114,25.383198 26.795002,23.622597 
	C26.482334,23.116230 25.323874,23.132113 23.790743,23.039860 
M61.126556,14.099835 
	C62.463787,14.117958 64.926460,14.333284 64.963211,14.123532 
	C65.310242,12.143047 65.390450,10.075234 65.186729,8.069248 
	C65.139694,7.606089 63.072807,6.870118 63.016521,6.957347 
	C62.134663,8.323897 61.346615,9.770666 60.728867,11.277633 
	C60.502872,11.828939 60.777943,12.585645 61.126556,14.099835 
M396.975128,104.396645 
	C396.880646,105.814804 396.786163,107.232956 396.690125,108.674271 
	C394.793121,108.895676 393.292053,109.070877 391.790985,109.246071 
	C391.847961,109.800285 391.904938,110.354492 391.961914,110.908707 
	C393.958496,110.729065 396.225800,111.080879 397.883789,110.236420 
	C399.997375,109.159904 399.652649,102.589592 397.371063,99.346596 
	C397.209564,101.027206 397.092438,102.246025 396.975128,104.396645 
z"/>
<path fill="#BF1A26" opacity="1.000000" stroke="none" 
	d="
M34.594749,79.262833 
	C37.402168,82.575195 40.117481,85.488708 42.549095,88.622375 
	C44.444550,91.065086 45.987148,93.781601 47.198463,96.678658 
	C22.388775,87.725098 17.018604,52.694096 37.085930,34.808952 
	C43.642139,28.965685 51.196743,26.514166 60.168316,25.625959 
	C75.068169,24.150841 85.622917,30.060490 94.365685,41.107594 
	C97.244026,44.744583 97.931496,48.042366 93.318481,50.822441 
	C83.163055,29.726385 61.907223,27.165182 48.186115,34.155006 
	C31.698576,42.554115 25.914450,61.305752 34.594749,79.262833 
z"/>
<path fill="#050505" opacity="1.000000" stroke="none" 
	d="
M333.328949,66.692871 
	C331.992706,64.834381 330.878876,63.257259 329.189148,60.864681 
	C329.189148,68.166229 329.189148,74.535957 329.189148,81.184006 
	C326.726501,81.184006 324.651062,81.184006 322.299622,81.184006 
	C322.299622,69.925102 322.299622,58.709694 322.299622,47.408352 
	C325.616058,46.162445 327.716309,47.360332 329.616638,50.264084 
	C333.310211,55.907955 337.352386,61.323685 341.843994,67.673424 
	C341.843994,60.391396 341.843994,54.050434 341.843994,47.364220 
	C344.304688,47.364220 346.361755,47.364220 348.716736,47.364220 
	C348.716736,58.367481 348.716736,69.600357 348.716736,81.091209 
	C345.716278,82.025047 343.398132,81.622902 341.498749,78.411392 
	C339.141815,74.426208 336.225891,70.771614 333.328949,66.692871 
z"/>
<path fill="#070707" opacity="1.000000" stroke="none" 
	d="
M308.600464,66.515244 
	C306.455170,76.862114 299.794617,82.350571 290.053528,82.132950 
	C281.688446,81.946068 274.332886,75.582283 273.054169,67.425682 
	C271.689545,58.721077 276.345306,50.368084 284.555511,47.621868 
	C298.114594,43.086517 309.789978,53.213669 308.600464,66.515244 
M279.627563,63.652645 
	C280.329163,66.139603 280.510376,68.957626 281.838776,71.045845 
	C284.770203,75.653992 290.468445,76.944778 295.459015,74.734161 
	C300.203033,72.632759 302.859009,67.325584 301.836548,61.990639 
	C300.846802,56.826260 296.236267,53.061047 290.866730,53.032036 
	C284.980896,53.000237 281.221252,56.301632 279.627563,63.652645 
z"/>
<path fill="#060606" opacity="1.000000" stroke="none" 
	d="
M109.549255,81.971840 
	C93.953758,78.101624 91.218872,60.154530 100.754570,51.327015 
	C106.404770,46.096436 115.876350,44.991783 122.444054,48.999687 
	C129.193527,53.118515 132.501694,61.219978 130.515869,68.767029 
	C128.397095,76.819366 121.782494,82.006920 113.461838,82.118576 
	C112.299332,82.134178 111.135536,82.054504 109.549255,81.971840 
M115.855995,53.203392 
	C114.865273,53.145195 113.872009,53.009365 112.884239,53.041599 
	C107.155487,53.228554 102.600906,57.266861 102.034401,62.615604 
	C101.369553,68.892868 104.281464,73.484695 110.005188,75.184814 
	C115.494698,76.815361 121.384766,74.045563 123.481895,68.847397 
	C126.003281,62.597622 123.458862,56.899570 115.855995,53.203392 
z"/>
<path fill="#BF1926" opacity="1.000000" stroke="none" 
	d="
M52.620972,71.778664 
	C54.625183,70.431618 55.916061,69.388855 57.720726,71.963821 
	C59.661808,74.733421 62.517578,76.970284 66.292007,74.780304 
	C67.623245,74.007904 69.677925,72.485641 69.533325,71.616791 
	C69.294022,70.178879 67.770851,68.577629 66.369759,67.797806 
	C64.230682,66.607239 61.714283,66.111488 59.394531,65.225334 
	C53.565536,62.998657 51.700260,60.198231 51.932144,54.912724 
	C52.140854,50.155403 55.379444,47.888607 59.081173,46.591824 
	C64.591721,44.661385 71.443298,46.817097 73.637093,50.510311 
	C75.029366,52.854183 74.248863,54.197216 70.653831,56.037094 
	C68.205811,54.706345 66.057915,52.929375 63.657902,52.470219 
	C62.290791,52.208672 60.511993,54.098980 58.918583,55.020302 
	C59.792114,56.419670 60.342896,58.360176 61.602848,59.111652 
	C64.729614,60.976540 68.227341,62.205509 71.490173,63.859341 
	C77.092987,66.699211 78.158791,73.694145 73.745888,78.092705 
	C68.311241,83.509712 56.091171,82.379776 52.037678,75.909729 
	C51.467903,75.000282 52.176830,73.289726 52.620972,71.778664 
z"/>
<path fill="#040404" opacity="1.000000" stroke="none" 
	d="
M180.915909,47.025047 
	C181.925797,48.332470 182.896866,49.625500 182.931442,50.943104 
	C183.093033,57.102196 183.092743,63.270157 182.958908,69.430794 
	C182.866257,73.695984 185.176376,75.579346 189.000748,75.708206 
	C193.036804,75.844215 195.785980,73.948624 195.847839,69.575981 
	C195.951309,62.261620 195.876114,54.944733 195.876114,47.325768 
	C197.955109,47.325768 199.851990,47.325768 202.134094,47.325768 
	C202.134094,55.846466 202.499313,64.452034 202.009048,73.008583 
	C201.667343,78.972145 195.754547,82.438324 188.122223,82.106522 
	C181.126190,81.802368 176.395401,77.540924 176.141815,70.650040 
	C175.860718,63.011837 176.077530,55.355309 176.077530,47.285938 
	C177.615143,47.193024 179.030411,47.107502 180.915909,47.025047 
z"/>
<path fill="#090909" opacity="1.000000" stroke="none" 
	d="
M230.937378,58.065639 
	C230.937363,66.023628 230.937363,73.489136 230.937363,81.216919 
	C228.567734,81.216919 226.491470,81.216919 224.077682,81.216919 
	C224.077682,72.127510 224.077682,63.195511 224.077682,53.831596 
	C221.046371,53.831596 218.319687,53.831596 215.108093,53.831596 
	C214.978088,51.527542 214.870605,49.622589 214.742798,47.357788 
	C223.136551,47.357788 231.341721,47.357788 239.797882,47.357788 
	C239.797882,49.194263 239.797882,51.119244 239.797882,53.414711 
	C237.089096,53.414711 234.326630,53.414711 231.243256,53.414711 
	C231.124573,55.028442 231.030991,56.300800 230.937378,58.065639 
z"/>
<path fill="#151515" opacity="1.000000" stroke="none" 
	d="
M385.961304,57.025345 
	C385.961304,53.553406 385.961304,50.576691 385.961304,47.081211 
	C391.030853,47.081211 396.101898,46.337296 400.789429,47.356842 
	C403.656677,47.980480 406.697571,50.857388 408.294983,53.536499 
	C410.564087,57.342159 408.146759,60.772659 406.327118,62.444103 
	C407.759552,66.578217 409.730347,70.030663 409.998138,73.610497 
	C410.325409,77.985428 406.380310,81.048012 401.432770,81.474670 
	C400.277252,81.574310 399.108337,81.528870 397.945526,81.530579 
	C394.145966,81.536148 390.346405,81.532669 385.961304,81.532669 
	C385.961304,73.331902 385.961304,65.426231 385.961304,57.025345 
M389.713074,65.159111 
	C389.270355,69.611008 388.827606,74.062912 388.339935,78.966599 
	C392.927155,78.966599 396.720398,78.928543 400.512543,78.976517 
	C404.957214,79.032730 407.344818,76.639648 407.816895,72.476494 
	C408.245758,68.694168 404.917847,65.382927 400.649628,65.164734 
	C397.332092,64.995148 393.999237,65.124718 389.713074,65.159111 
M397.224426,62.846008 
	C403.308411,62.749233 406.313416,60.521301 406.267426,56.141491 
	C406.221100,51.729782 403.267334,49.619438 397.067078,49.586002 
	C394.456726,49.571922 391.846252,49.583656 388.757568,49.583656 
	C388.757568,52.086102 388.757568,54.200226 388.757568,56.314354 
	C388.757568,58.397560 388.757568,60.480766 388.757568,62.846008 
	C391.720306,62.846008 394.017181,62.846008 397.224426,62.846008 
z"/>
<path fill="#020202" opacity="1.000000" stroke="none" 
	d="
M164.278687,76.116150 
	C164.329254,78.074036 164.329254,79.536751 164.329254,81.212219 
	C157.668213,81.212219 151.444580,81.212219 144.945160,81.212219 
	C144.945160,69.882141 144.945160,58.666454 144.945160,47.237717 
	C146.936493,47.237717 148.841644,47.237717 151.162277,47.237717 
	C151.162277,56.467293 151.162277,65.531860 151.162277,74.658470 
	C155.788071,74.999229 160.008102,75.310097 164.278687,76.116150 
z"/>
<path fill="#010101" opacity="1.000000" stroke="none" 
	d="
M259.220490,51.104309 
	C259.220520,61.360691 259.220520,71.130409 259.220520,81.176102 
	C257.060730,81.176102 255.160645,81.176102 252.996613,81.176102 
	C252.996613,69.899940 252.996613,58.710785 252.996613,47.086414 
	C255.434158,47.849140 259.714294,44.451748 259.220490,51.104309 
z"/>
<path fill="#BF1825" opacity="1.000000" stroke="none" 
	d="
M50.695107,102.314621 
	C60.138992,107.876007 69.602356,102.877235 78.871422,102.808388 
	C79.137390,103.297081 79.403358,103.785774 79.669327,104.274467 
	C78.425789,105.602394 77.427094,107.441193 75.898285,108.173859 
	C67.128441,112.376717 58.216728,112.055344 49.472679,108.055931 
	C48.336754,107.536377 47.157177,105.776497 47.152557,104.586655 
	C47.149460,103.787064 49.182037,102.979576 50.695107,102.314621 
z"/>
<path fill="#BE1721" opacity="1.000000" stroke="none" 
	d="
M87.873138,91.904785 
	C85.035973,93.902672 82.473557,95.667450 78.871048,98.148560 
	C79.818466,87.777786 90.345505,85.328606 92.247063,76.791649 
	C93.817726,78.718735 94.960632,80.120995 96.585495,82.114571 
	C93.777855,85.294716 90.962868,88.483192 87.873138,91.904785 
z"/>
<path fill="#040404" opacity="1.000000" stroke="none" 
	d="
M428.033569,62.004322 
	C428.033569,68.766426 428.033569,75.029594 428.033569,81.597351 
	C425.003540,79.419952 424.628510,50.292210 428.033569,45.985626 
	C428.033569,51.879135 428.033569,56.692257 428.033569,62.004322 
z"/>
<path fill="#BF1922" opacity="1.000000" stroke="none" 
	d="
M427.012878,111.109764 
	C423.871674,108.628426 420.702148,108.267479 417.049896,110.840294 
	C418.157074,107.683617 419.183563,104.494514 420.429779,101.393723 
	C420.730255,100.646149 421.744110,99.750626 422.455750,99.727760 
	C423.139038,99.705811 424.255371,100.597694 424.487946,101.313347 
	C425.434509,104.226288 426.114777,107.225754 426.943970,110.627823 
	C426.994720,111.062317 427.012878,111.109764 427.012878,111.109764 
z"/>
<path fill="#BF1E25" opacity="1.000000" stroke="none" 
	d="
M411.181519,100.018646 
	C411.256165,100.948357 411.013153,102.336052 410.690033,102.354958 
	C409.612396,102.417999 408.506073,101.990356 407.430267,101.755020 
	C409.484985,104.490662 411.241486,106.829239 412.997955,109.167816 
	C411.820129,109.947411 410.625580,111.383018 409.468414,111.353531 
	C407.713806,111.308807 405.985138,110.245705 404.245422,109.615242 
	C404.429871,109.106888 404.614288,108.598541 404.798737,108.090187 
	C406.670288,108.416420 408.541870,108.742653 411.111206,109.190514 
	C409.580902,105.365494 402.836823,106.346428 405.317535,101.290855 
	C405.863922,100.177361 408.924377,100.297485 411.181519,100.018646 
z"/>
<path fill="#C01C28" opacity="1.000000" stroke="none" 
	d="
M367.818085,59.510849 
	C368.394653,59.769199 368.708679,59.972847 368.818909,60.255867 
	C369.564209,62.169975 370.639771,64.081139 370.743195,66.038963 
	C370.772247,66.589325 367.587463,68.140999 366.446198,67.713463 
	C364.982361,67.165070 362.893097,64.652779 363.214966,63.751534 
	C363.824738,62.044220 365.959869,60.881714 367.818085,59.510849 
z"/>
<path fill="#C1222E" opacity="1.000000" stroke="none" 
	d="
M9.294874,64.947220 
	C8.374906,63.399513 7.861402,61.931652 7.347897,60.463787 
	C9.329730,60.079708 11.339428,59.335472 13.279927,59.485615 
	C14.076259,59.547226 14.723317,61.538155 15.438277,62.651455 
	C14.016699,63.452915 12.617985,64.300430 11.158289,65.025108 
	C10.768411,65.218666 10.192073,65.036652 9.294874,64.947220 
z"/>
<path fill="#BF1D28" opacity="1.000000" stroke="none" 
	d="
M24.171972,22.974205 
	C25.323874,23.132113 26.482334,23.116230 26.795002,23.622597 
	C27.882114,25.383198 28.675951,27.324890 29.581318,29.197714 
	C28.027830,29.343809 25.964914,30.183750 25.025236,29.493830 
	C22.969297,27.984337 19.922222,25.965904 24.171972,22.974205 
z"/>
<path fill="#BD101B" opacity="1.000000" stroke="none" 
	d="
M60.975494,13.674242 
	C60.777943,12.585645 60.502872,11.828939 60.728867,11.277633 
	C61.346615,9.770666 62.134663,8.323897 63.016521,6.957347 
	C63.072807,6.870118 65.139694,7.606089 65.186729,8.069248 
	C65.390450,10.075234 65.310242,12.143047 64.963211,14.123532 
	C64.926460,14.333284 62.463787,14.117958 60.975494,13.674242 
z"/>
<path fill="#BB0406" opacity="1.000000" stroke="none" 
	d="
M396.975220,103.930740 
	C397.092438,102.246025 397.209564,101.027206 397.371063,99.346596 
	C399.652649,102.589592 399.997375,109.159904 397.883789,110.236420 
	C396.225800,111.080879 393.958496,110.729065 391.961914,110.908707 
	C391.904938,110.354492 391.847961,109.800285 391.790985,109.246071 
	C393.292053,109.070877 394.793121,108.895676 396.690125,108.674271 
	C396.786163,107.232956 396.880646,105.814804 396.975220,103.930740 
z"/>
<path fill="#BF1922" opacity="1.000000" stroke="none" 
	d="
M426.977112,111.044556 
	C426.959503,111.026794 427.082031,111.169067 427.082031,111.169067 
	C427.082031,111.169067 427.056183,110.957428 427.034546,111.033600 
	C427.012878,111.109764 426.994720,111.062317 426.977112,111.044556 
z"/>
<path fill="#FAFAFA" opacity="1.000000" stroke="none" 
	d="
M279.679047,63.231743 
	C281.221252,56.301632 284.980896,53.000237 290.866730,53.032036 
	C296.236267,53.061047 300.846802,56.826260 301.836548,61.990639 
	C302.859009,67.325584 300.203033,72.632759 295.459015,74.734161 
	C290.468445,76.944778 284.770203,75.653992 281.838776,71.045845 
	C280.510376,68.957626 280.329163,66.139603 279.679047,63.231743 
z"/>
<path fill="#FAFAFA" opacity="1.000000" stroke="none" 
	d="
M116.235184,53.335724 
	C123.458862,56.899570 126.003281,62.597622 123.481895,68.847397 
	C121.384766,74.045563 115.494698,76.815361 110.005188,75.184814 
	C104.281464,73.484695 101.369553,68.892868 102.034401,62.615604 
	C102.600906,57.266861 107.155487,53.228554 112.884239,53.041599 
	C113.872009,53.009365 114.865273,53.145195 116.235184,53.335724 
z"/>
<path fill="#FBFBFB" opacity="1.000000" stroke="none" 
	d="
M390.193115,65.140213 
	C393.999237,65.124718 397.332092,64.995148 400.649628,65.164734 
	C404.917847,65.382927 408.245758,68.694168 407.816895,72.476494 
	C407.344818,76.639648 404.957214,79.032730 400.512543,78.976517 
	C396.720398,78.928543 392.927155,78.966599 388.339935,78.966599 
	C388.827606,74.062912 389.270355,69.611008 390.193115,65.140213 
z"/>
<path fill="#FAFAFA" opacity="1.000000" stroke="none" 
	d="
M396.769257,62.846008 
	C394.017181,62.846008 391.720306,62.846008 388.757568,62.846008 
	C388.757568,60.480766 388.757568,58.397560 388.757568,56.314354 
	C388.757568,54.200226 388.757568,52.086102 388.757568,49.583656 
	C391.846252,49.583656 394.456726,49.571922 397.067078,49.586002 
	C403.267334,49.619438 406.221100,51.729782 406.267426,56.141491 
	C406.313416,60.521301 403.308411,62.749233 396.769257,62.846008 
z"/>
</svg>