<svg version="1.1" id="Layer_1" xmlns="http://www.w3.org/2000/svg" xmlns:xlink="http://www.w3.org/1999/xlink" x="0px" y="0px"
	 width="100%" viewBox="0 0 1920 516" enable-background="new 0 0 1920 516" xml:space="preserve">
<path fill="#FFFFFF" opacity="1.000000" stroke="none" 
	d="
M1411.000000,517.000000 
	C940.666687,517.000000 470.833344,517.000000 1.000000,517.000000 
	C1.000000,345.000000 1.000000,173.000000 1.000000,1.000000 
	C641.000000,1.000000 1281.000000,1.000000 1921.000000,1.000000 
	C1921.000000,173.000000 1921.000000,345.000000 1921.000000,517.000000 
	C1751.166626,517.000000 1581.333374,517.000000 1411.000000,517.000000 
M1556.066895,478.615936 
	C1556.365723,479.082825 1556.664673,479.549713 1557.042603,480.750336 
	C1558.220947,483.268738 1559.530884,484.211700 1561.329468,481.203125 
	C1564.558716,475.801056 1567.829956,470.424103 1571.652588,464.692017 
	C1572.125244,463.468597 1572.597900,462.245178 1573.703125,460.938446 
	C1574.116089,460.963440 1574.529175,460.988464 1574.820435,461.819214 
	C1574.820435,472.037323 1574.820435,482.255402 1574.820435,492.531769 
	C1578.524292,492.531769 1581.648438,492.531769 1584.801636,492.531769 
	C1584.981323,491.945831 1585.247314,491.481873 1585.248169,491.017487 
	C1585.277954,474.429108 1585.298706,457.840607 1585.237183,441.252472 
	C1585.234619,440.549194 1584.437622,439.848877 1583.113403,439.008453 
	C1577.163452,438.229828 1572.518921,439.056061 1569.650879,445.639069 
	C1567.111816,451.467407 1562.952393,456.589996 1559.297607,462.356262 
	C1556.097290,457.259155 1552.498535,452.952515 1550.488892,448.000946 
	C1547.273315,440.077423 1542.015991,437.395020 1533.235596,439.202881 
	C1533.093628,448.319122 1532.899414,457.434937 1532.824829,466.551727 
	C1532.754395,475.171631 1532.809692,483.792572 1532.809692,492.391510 
	C1536.864624,492.391510 1540.434082,492.391510 1544.442871,492.391510 
	C1544.442871,482.073730 1544.442871,472.037415 1544.442871,461.569794 
	C1545.635498,462.276459 1546.300293,462.670288 1546.988037,462.998871 
	C1546.988037,462.998871 1546.929688,463.035858 1547.108643,463.696869 
	C1548.066528,465.142578 1549.024414,466.588287 1549.998779,467.996918 
	C1549.998779,467.996918 1549.963745,468.018097 1550.114136,468.691681 
	C1551.071899,470.136078 1552.029663,471.580444 1553.000000,472.998779 
	C1553.000000,472.998779 1552.974487,473.012512 1553.098877,473.694122 
	C1554.060425,475.140137 1555.021973,476.586121 1556.000732,478.000244 
	C1556.000732,478.000244 1555.968628,478.015686 1556.066895,478.615936 
M1823.119385,439.006714 
	C1820.409302,439.053864 1817.699219,439.101013 1814.232422,439.201843 
	C1814.085693,447.980347 1813.880615,456.758331 1813.808472,465.537445 
	C1813.734985,474.486908 1813.792114,483.437408 1813.792114,492.379974 
	C1817.837402,492.379974 1821.401123,492.379974 1825.288696,492.379974 
	C1825.288696,474.978851 1825.300293,457.870026 1825.234863,440.761475 
	C1825.232788,440.221832 1824.436768,439.685211 1823.119385,439.006714 
M1770.882690,492.120087 
	C1775.001953,490.240997 1779.603760,489.006409 1783.145386,486.355530 
	C1791.898193,479.803802 1793.157349,470.122375 1792.077393,460.107391 
	C1790.890747,449.101501 1780.559204,439.184937 1770.481079,439.018829 
	C1762.661743,438.889923 1754.837402,439.053772 1746.170288,439.035858 
	C1745.838623,439.871948 1745.220581,440.707031 1745.217773,441.544250 
	C1745.161987,457.948059 1745.172119,474.352173 1745.202148,490.756165 
	C1745.203247,491.357697 1745.543213,491.958649 1745.668701,492.373047 
	C1753.990845,492.373047 1762.049805,492.373047 1770.882690,492.120087 
M259.613892,458.060608 
	C252.488358,457.088837 245.259949,456.583527 238.260666,455.039429 
	C226.854980,452.523315 215.598923,449.328857 203.953491,446.336823 
	C203.953491,453.124695 204.286346,460.100952 203.846786,467.028229 
	C203.503174,472.443726 205.902405,475.397675 210.617569,476.916809 
	C222.854599,480.859344 235.041412,484.994263 247.406601,488.492859 
	C261.259918,492.412506 275.655029,494.728638 289.736694,491.412750 
	C307.593750,487.207855 325.070312,481.352783 342.610840,475.888031 
	C344.495483,475.300873 346.928894,472.648987 347.034332,470.834412 
	C347.511292,462.628784 347.242828,454.379822 347.242828,447.059814 
	C331.892456,450.349579 316.974945,453.570343 302.044312,456.729218 
	C298.433258,457.493225 294.778992,458.052948 290.188141,458.598633 
	C280.148407,458.617523 270.108673,458.636414 259.613892,458.060608 
M119.301643,345.014893 
	C131.978912,372.281738 149.694412,395.614868 174.114258,413.350220 
	C183.553497,420.205658 193.924255,425.778503 204.796402,432.508789 
	C205.792435,414.716370 199.556870,401.926300 187.833969,391.229950 
	C178.820145,383.005432 169.336594,375.033997 161.704163,365.618713 
	C150.307281,351.559540 142.446472,335.404785 137.446060,317.760040 
	C130.838943,294.445648 129.873260,271.091675 134.845703,247.510788 
	C140.097061,222.607086 151.387909,200.562729 168.303024,181.612045 
	C183.779190,164.273499 202.577698,151.390518 224.277847,143.017212 
	C247.654648,133.996918 271.974274,131.445175 296.655426,135.017197 
	C313.109192,137.398499 328.839172,142.649551 343.588959,150.734100 
	C368.879120,164.595978 388.569458,183.904160 402.139801,209.379852 
	C404.957001,214.668564 407.594666,220.052917 410.481995,225.720840 
	C414.285706,221.364868 417.674561,217.386261 421.173828,213.507233 
	C424.015533,210.357101 428.851746,207.611420 429.379547,204.162384 
	C429.903564,200.738434 426.278931,196.589859 424.251923,192.880280 
	C414.008270,174.133621 400.244202,158.269287 383.923279,144.633377 
	C372.030304,134.696915 358.649872,127.059013 344.589935,120.605301 
	C326.257965,112.190643 306.891479,107.408043 286.869232,106.451775 
	C274.561188,105.863945 262.109467,107.126450 249.788300,108.269615 
	C235.065155,109.635628 220.968399,114.024734 207.602615,120.151161 
	C182.360092,131.721481 160.260178,147.522156 142.924545,169.642014 
	C131.616699,184.070557 122.524208,199.653778 115.975456,216.732025 
	C110.622398,230.692062 107.491791,245.112167 106.096489,260.055054 
	C104.641502,275.637115 104.485130,291.140900 107.985268,306.342499 
	C110.936836,319.161560 115.285149,331.659027 119.301643,345.014893 
M1455.749634,315.500153 
	C1455.749634,300.006317 1455.749634,284.512451 1455.749634,267.645660 
	C1460.189209,273.837769 1463.746338,278.689240 1467.189575,283.620270 
	C1484.483521,308.387268 1501.731934,333.185974 1519.079468,357.915283 
	C1519.775635,358.907776 1521.295044,359.871063 1522.454834,359.900543 
	C1529.604248,360.082306 1536.760498,359.991760 1544.034180,359.991760 
	C1544.034180,308.546448 1544.034180,257.345673 1544.034180,206.158508 
	C1533.630249,206.158508 1523.533569,206.158508 1512.942383,206.158508 
	C1512.942383,236.215210 1512.942383,266.039856 1512.942383,297.321686 
	C1504.636108,285.391266 1497.199219,274.662384 1489.713257,263.967926 
	C1476.702759,245.381149 1463.683350,226.800507 1450.578491,208.280426 
	C1449.819336,207.207672 1448.279785,206.065704 1447.073608,206.032288 
	C1439.629150,205.826035 1432.176147,205.928711 1424.551758,205.928711 
	C1424.551758,257.449677 1424.551758,308.505432 1424.551758,359.689362 
	C1435.000000,359.689362 1445.211914,359.689362 1455.749634,359.689362 
	C1455.749634,345.093506 1455.749634,330.796844 1455.749634,315.500153 
M467.784363,208.025467 
	C455.558777,213.649353 444.922302,221.087143 435.950684,231.476456 
	C419.830048,250.144516 416.434296,272.182343 418.924591,295.145721 
	C421.471558,318.631378 434.049103,336.930756 453.762054,350.158539 
	C472.239594,362.557373 492.877045,365.731781 514.073853,361.705658 
	C539.622986,356.852875 558.798523,341.956512 570.450256,318.589447 
	C578.610046,302.225403 580.215027,284.713440 576.791687,266.612183 
	C571.855103,240.509384 556.738586,221.917480 533.623840,210.517517 
	C512.788696,200.241882 490.614441,200.028061 467.784363,208.025467 
M1234.846924,220.259995 
	C1226.217285,228.275406 1218.076782,236.772034 1213.401123,247.761398 
	C1207.159058,262.432648 1204.755859,277.593903 1206.762329,293.718445 
	C1209.681396,317.177979 1220.948975,335.564331 1239.723755,348.898651 
	C1260.045654,363.331848 1283.111328,366.302795 1307.191162,360.483612 
	C1325.023926,356.174133 1338.867310,345.745880 1350.059204,331.415466 
	C1366.773438,310.013855 1369.539551,285.795319 1363.225830,260.464783 
	C1358.205933,240.324905 1345.667114,225.076721 1327.922729,214.138016 
	C1309.215210,202.605469 1289.053223,200.766449 1267.937622,204.618668 
	C1255.759155,206.840378 1245.251587,212.617981 1234.846924,220.259995 
M890.327881,205.922836 
	C881.741638,205.922836 873.155334,205.922836 864.317993,205.922836 
	C864.317993,208.401352 864.317932,210.210419 864.317932,212.019485 
	C864.317871,241.342026 864.359802,270.664673 864.274536,299.986969 
	C864.261169,304.589478 864.215088,309.310883 863.228638,313.765717 
	C861.427917,321.898315 856.725891,328.020752 848.516357,330.762878 
	C840.871399,333.316467 833.105042,333.315643 825.355408,331.210632 
	C817.382446,329.044952 811.665344,324.339355 809.521118,316.128448 
	C808.664368,312.847992 808.007996,309.403900 807.995850,306.031647 
	C807.882141,274.543640 807.928284,243.055099 807.928223,211.566696 
	C807.928223,209.788147 807.928223,208.009613 807.928223,206.080688 
	C797.330383,206.080688 787.213806,206.080688 777.059814,206.080688 
	C776.927307,206.671127 776.723267,207.148270 776.727295,207.623672 
	C777.027771,243.376434 777.289429,279.129669 777.685486,314.881409 
	C777.862244,330.831299 784.888672,343.510345 798.134827,351.956146 
	C821.898254,367.107880 846.706604,367.247772 871.191040,353.902710 
	C885.069214,346.338501 894.087036,333.752014 894.488342,317.977631 
	C895.411926,281.681244 894.743469,245.345108 894.843994,209.025436 
	C894.852051,206.102798 893.612488,205.648804 890.327881,205.922836 
M280.501465,359.987396 
	C284.600128,359.658752 288.710236,359.433685 292.795227,358.981567 
	C303.984528,357.743225 313.938385,353.472778 322.503143,346.197693 
	C331.551758,338.511627 336.026184,328.294373 336.576904,316.729004 
	C337.154846,304.592346 334.725067,293.288666 325.083740,284.363403 
	C317.669769,277.500092 309.001617,273.375580 299.715332,270.074219 
	C288.621979,266.130402 277.377502,262.530487 266.552643,257.945465 
	C260.737427,255.482315 256.902863,250.767609 257.575317,243.392349 
	C258.115295,237.470139 261.580383,233.573303 266.281128,231.916595 
	C275.953064,228.507812 285.975983,228.651230 294.310303,235.489700 
	C299.114288,239.431488 302.778381,244.762512 307.035950,249.558807 
	C314.263489,245.246170 321.892151,240.544357 329.685455,236.133377 
	C332.087646,234.773727 332.359924,233.488724 330.918976,231.444351 
	C328.078583,227.414627 325.586487,223.070465 322.316772,219.424545 
	C309.929230,205.611572 294.441223,199.343018 275.747681,199.846008 
	C262.763367,200.195374 251.795410,204.142868 241.139618,211.685654 
	C224.974518,223.128235 222.840332,249.902588 229.695038,264.254089 
	C235.911880,277.270081 247.672318,283.195404 260.285614,287.866058 
	C271.933411,292.179260 283.764221,296.003479 295.371643,300.418488 
	C301.368011,302.699280 305.401184,307.441895 305.115021,314.007477 
	C304.812378,320.950409 300.171692,325.947632 293.762543,327.521942 
	C287.756012,328.997375 281.222717,329.044373 274.981812,328.680756 
	C265.774963,328.144348 257.937958,324.277588 252.549042,316.404572 
	C250.258774,313.058563 248.100204,309.622375 245.590958,305.782135 
	C236.875595,310.915619 228.183151,316.035583 218.320129,321.845062 
	C222.421814,328.103333 225.647705,334.472076 230.195114,339.688904 
	C243.149170,354.549896 260.392853,359.757263 280.501465,359.987396 
M989.164856,347.485046 
	C989.164856,351.581299 989.164856,355.677551 989.164856,359.785522 
	C999.904358,359.785522 1010.003906,359.785522 1020.522217,359.785522 
	C1020.522217,318.528809 1020.522217,277.476349 1020.522217,235.977997 
	C1034.336670,235.977997 1047.738403,235.977997 1061.261719,235.977997 
	C1061.261719,225.767258 1061.261719,216.006287 1061.261719,206.247971 
	C1023.499634,206.247971 985.966919,206.247971 948.485229,206.247971 
	C948.485229,216.312958 948.485229,226.047913 948.485229,236.197968 
	C962.186584,236.197968 975.598145,236.197968 989.164856,236.197968 
	C989.164856,273.242798 989.164856,309.865845 989.164856,347.485046 
M674.640869,329.834503 
	C672.560425,329.834503 670.479980,329.834503 668.116638,329.834503 
	C668.116638,288.177917 668.116638,247.266251 668.116638,206.233932 
	C657.618408,206.233932 647.418030,206.233932 637.298950,206.233932 
	C637.298950,257.589050 637.298950,308.637787 637.298950,359.687073 
	C667.274170,359.687073 696.983154,359.687073 726.709961,359.687073 
	C726.709961,349.632568 726.709961,339.882812 726.709961,329.834564 
	C709.523987,329.834564 692.567749,329.834564 674.640869,329.834503 
M1708.185791,257.499908 
	C1708.185791,291.587524 1708.185791,325.675140 1708.185791,359.615540 
	C1709.141479,359.836395 1709.460205,359.974365 1709.778931,359.974579 
	C1730.772095,359.988861 1751.766846,359.844330 1772.758057,360.046021 
	C1787.691650,360.189484 1799.856445,354.901428 1808.825195,342.846466 
	C1818.554443,329.769318 1819.225708,315.576355 1813.451660,300.802582 
	C1809.535156,290.781647 1801.546875,284.653290 1792.341919,279.940552 
	C1795.571167,277.162933 1799.183472,274.980469 1801.541748,271.852478 
	C1808.406738,262.746948 1811.354736,252.755066 1810.152588,240.864594 
	C1808.212646,221.678085 1789.468628,205.858109 1771.658325,205.906143 
	C1752.331177,205.958267 1733.003662,205.917847 1713.676392,205.917786 
	C1711.920654,205.917786 1710.165039,205.917786 1708.185791,205.917786 
	C1708.185791,223.223404 1708.185791,239.861633 1708.185791,257.499908 
M1116.046509,352.428528 
	C1116.046509,354.863647 1116.046509,357.298737 1116.046509,359.762451 
	C1126.713257,359.762451 1136.806274,359.762451 1147.037964,359.762451 
	C1147.037964,308.472870 1147.037964,257.410431 1147.037964,206.238693 
	C1136.636597,206.238693 1126.430420,206.238693 1116.046509,206.238693 
	C1116.046509,254.848969 1116.046509,303.148285 1116.046509,352.428528 
M424.279999,359.590912 
	C418.600922,352.388489 412.921844,345.186035 407.021912,337.703491 
	C406.304443,338.990936 405.573059,340.238037 404.902405,341.516937 
	C397.611145,355.421234 388.916687,368.293854 377.433502,379.142914 
	C370.160126,386.014618 362.393005,392.465790 355.842407,399.973724 
	C348.291107,408.628632 345.894775,419.387817 346.398529,431.221985 
	C365.554810,423.464569 381.261078,411.637817 395.498993,397.930481 
	C406.926453,386.928864 416.189697,374.055603 424.279999,359.590912 
M1895.762207,219.510712 
	C1895.762207,215.067459 1895.762207,210.624207 1895.762207,206.104340 
	C1891.261230,206.104340 1887.324463,206.104340 1883.309814,206.104340 
	C1883.309814,257.496216 1883.309814,308.695984 1883.309814,359.704590 
	C1887.581909,359.704590 1891.510132,359.704590 1895.762207,359.704590 
	C1895.762207,313.109222 1895.762207,266.807922 1895.762207,219.510712 
M1609.831909,475.495972 
	C1609.831909,481.132965 1609.831909,486.769958 1609.831909,492.732483 
	C1618.077515,492.732483 1625.898438,493.032013 1633.681641,492.620728 
	C1638.389160,492.371918 1642.952881,490.891144 1645.990234,486.665131 
	C1651.115967,479.533264 1651.537109,472.741791 1644.045776,464.128174 
	C1644.586426,463.159058 1645.125366,462.147034 1645.705933,461.159393 
	C1650.828613,452.444366 1646.074829,441.057312 1635.776855,439.282379 
	C1627.435059,437.844635 1618.647949,438.990692 1609.832031,438.990692 
	C1609.832031,451.192261 1609.832031,462.844696 1609.831909,475.495972 
M1668.189087,460.030396 
	C1668.429199,464.452118 1668.079224,469.003418 1669.016357,473.272064 
	C1672.229858,487.908936 1688.541870,496.462738 1702.502808,492.826477 
	C1718.458130,488.670868 1727.763428,473.104828 1722.492920,456.762177 
	C1717.490723,441.251251 1703.532593,434.919739 1687.437134,438.865234 
	C1676.873291,441.454803 1671.008301,448.981262 1668.189087,460.030396 
M1497.679443,445.569824 
	C1497.147583,440.080627 1494.170654,437.969818 1488.767334,438.940552 
	C1487.314209,439.201630 1485.638794,438.601959 1484.309814,439.078827 
	C1482.746460,439.639801 1480.637085,440.648773 1480.160156,441.967987 
	C1474.140747,458.619995 1468.373291,475.363159 1462.317871,492.723999 
	C1466.201050,492.723999 1469.656738,492.892151 1473.076660,492.616974 
	C1474.046509,492.538971 1475.647095,491.223480 1475.710693,490.381195 
	C1476.281738,482.831665 1481.127563,482.351135 1487.060059,482.884003 
	C1491.003540,483.238220 1495.004517,482.951263 1498.847168,482.951263 
	C1503.035645,493.871277 1503.706909,494.267578 1514.082275,492.001343 
	C1508.661621,476.768250 1503.251465,461.564545 1497.679443,445.569824 
M1888.655029,492.733582 
	C1890.914307,492.733582 1893.173706,492.733582 1896.136841,492.733582 
	C1890.966064,478.344971 1886.016602,464.792175 1881.227783,451.182831 
	C1876.692993,438.295654 1876.767212,438.268860 1863.374390,439.079193 
	C1863.229614,439.088013 1863.092529,439.228271 1862.645264,439.479065 
	C1856.619141,456.833618 1850.508057,474.433197 1844.327759,492.232086 
	C1855.793335,493.589355 1855.793335,493.589355 1860.349609,483.130005 
	C1867.133667,483.130005 1873.931030,483.130005 1880.393677,483.130005 
	C1881.321045,485.196533 1882.522583,486.920715 1882.838257,488.794220 
	C1883.350830,491.833221 1884.723022,493.197937 1888.655029,492.733582 
M1443.563965,444.945343 
	C1435.516724,437.134491 1425.584106,436.414062 1415.584229,438.738434 
	C1397.729858,442.888611 1390.323730,465.885925 1400.847290,481.657990 
	C1411.161865,497.116974 1434.662354,497.305206 1445.754639,483.492371 
	C1446.484009,482.584045 1447.148560,480.332306 1446.788208,480.049408 
	C1444.405884,478.179260 1441.861206,476.365936 1439.083740,475.236542 
	C1438.204712,474.879089 1436.251587,476.454773 1435.133423,477.509735 
	C1428.503418,483.764496 1419.327148,483.884796 1412.979614,477.677277 
	C1406.420288,471.262482 1406.003540,460.466003 1411.781128,454.033356 
	C1418.581299,446.462494 1431.207275,446.917450 1438.060791,456.290405 
	C1441.092896,454.519653 1444.150513,452.734009 1447.663330,450.682526 
	C1446.247437,448.622620 1445.163818,447.046143 1443.563965,444.945343 
M1644.128418,288.326477 
	C1647.820435,279.065948 1646.244141,270.941315 1638.598755,264.380981 
	C1632.286987,258.965179 1625.218384,258.160614 1617.468018,261.261810 
	C1609.746826,264.351410 1605.793213,271.130890 1605.916992,281.948669 
	C1605.991821,288.488892 1611.608887,296.639404 1617.938110,298.448242 
	C1627.156860,301.082886 1637.366333,300.431915 1644.128418,288.326477 
M279.215210,25.272291 
	C271.223511,25.635237 265.712128,29.405493 264.689697,36.720470 
	C263.849304,42.733150 263.482269,49.200199 264.800507,55.037922 
	C266.925079,64.446152 271.536163,66.115578 281.094055,65.298874 
	C286.820923,64.809532 290.881500,59.169289 290.884613,52.043629 
	C290.886200,48.384438 290.885254,44.725250 290.885162,41.066059 
	C290.884918,31.436419 289.012512,28.724091 279.215210,25.272291 
M26.240911,270.823853 
	C26.235470,281.498016 30.738974,285.932404 41.585388,285.932098 
	C45.579803,285.931976 49.577991,286.042053 53.567844,285.906769 
	C61.571503,285.635406 66.160843,280.049500 66.281242,272.517151 
	C66.395119,265.393280 60.856976,259.684174 53.695053,259.464325 
	C48.540409,259.306061 43.375267,259.344330 38.218105,259.452332 
	C32.451015,259.573120 27.443882,264.063232 26.240911,270.823853 
M129.848312,117.115120 
	C128.269623,114.699219 126.926628,112.079361 125.055244,109.916733 
	C122.454994,106.911804 119.465965,104.242203 116.630005,101.442581 
	C111.346161,96.226410 102.638725,96.058647 97.498512,101.063217 
	C92.407082,106.020271 92.453232,114.160385 97.691582,119.614365 
	C101.141632,123.206436 104.617012,126.783012 108.241447,130.196198 
	C111.543488,133.305786 115.378563,134.727875 120.013969,133.286087 
	C127.464951,130.968552 129.903641,127.289169 129.848312,117.115120 
z"/>
<path fill="#BE1723" opacity="1.000000" stroke="none" 
	d="
M119.158432,344.656860 
	C115.285149,331.659027 110.936836,319.161560 107.985268,306.342499 
	C104.485130,291.140900 104.641502,275.637115 106.096489,260.055054 
	C107.491791,245.112167 110.622398,230.692062 115.975456,216.732025 
	C122.524208,199.653778 131.616699,184.070557 142.924545,169.642014 
	C160.260178,147.522156 182.360092,131.721481 207.602615,120.151161 
	C220.968399,114.024734 235.065155,109.635628 249.788300,108.269615 
	C262.109467,107.126450 274.561188,105.863945 286.869232,106.451775 
	C306.891479,107.408043 326.257965,112.190643 344.589935,120.605301 
	C358.649872,127.059013 372.030304,134.696915 383.923279,144.633377 
	C400.244202,158.269287 414.008270,174.133621 424.251923,192.880280 
	C426.278931,196.589859 429.903564,200.738434 429.379547,204.162384 
	C428.851746,207.611420 424.015533,210.357101 421.173828,213.507233 
	C417.674561,217.386261 414.285706,221.364868 410.481995,225.720840 
	C407.594666,220.052917 404.957001,214.668564 402.139801,209.379852 
	C388.569458,183.904160 368.879120,164.595978 343.588959,150.734100 
	C328.839172,142.649551 313.109192,137.398499 296.655426,135.017197 
	C271.974274,131.445175 247.654648,133.996918 224.277847,143.017212 
	C202.577698,151.390518 183.779190,164.273499 168.303024,181.612045 
	C151.387909,200.562729 140.097061,222.607086 134.845703,247.510788 
	C129.873260,271.091675 130.838943,294.445648 137.446060,317.760040 
	C142.446472,335.404785 150.307281,351.559540 161.704163,365.618713 
	C169.336594,375.033997 178.820145,383.005432 187.833969,391.229950 
	C199.556870,401.926300 205.792435,414.716370 204.796402,432.508789 
	C193.924255,425.778503 183.553497,420.205658 174.114258,413.350220 
	C149.694412,395.614868 131.978912,372.281738 119.158432,344.656860 
z"/>
<path fill="#030303" opacity="1.000000" stroke="none" 
	d="
M1455.749634,316.000183 
	C1455.749634,330.796844 1455.749634,345.093506 1455.749634,359.689362 
	C1445.211914,359.689362 1435.000000,359.689362 1424.551758,359.689362 
	C1424.551758,308.505432 1424.551758,257.449677 1424.551758,205.928711 
	C1432.176147,205.928711 1439.629150,205.826035 1447.073608,206.032288 
	C1448.279785,206.065704 1449.819336,207.207672 1450.578491,208.280426 
	C1463.683350,226.800507 1476.702759,245.381149 1489.713257,263.967926 
	C1497.199219,274.662384 1504.636108,285.391266 1512.942383,297.321686 
	C1512.942383,266.039856 1512.942383,236.215210 1512.942383,206.158508 
	C1523.533569,206.158508 1533.630249,206.158508 1544.034180,206.158508 
	C1544.034180,257.345673 1544.034180,308.546448 1544.034180,359.991760 
	C1536.760498,359.991760 1529.604248,360.082306 1522.454834,359.900543 
	C1521.295044,359.871063 1519.775635,358.907776 1519.079468,357.915283 
	C1501.731934,333.185974 1484.483521,308.387268 1467.189575,283.620270 
	C1463.746338,278.689240 1460.189209,273.837769 1455.749634,267.645660 
	C1455.749634,284.512451 1455.749634,300.006317 1455.749634,316.000183 
z"/>
<path fill="#020202" opacity="1.000000" stroke="none" 
	d="
M468.178589,207.952576 
	C490.614441,200.028061 512.788696,200.241882 533.623840,210.517517 
	C556.738586,221.917480 571.855103,240.509384 576.791687,266.612183 
	C580.215027,284.713440 578.610046,302.225403 570.450256,318.589447 
	C558.798523,341.956512 539.622986,356.852875 514.073853,361.705658 
	C492.877045,365.731781 472.239594,362.557373 453.762054,350.158539 
	C434.049103,336.930756 421.471558,318.631378 418.924591,295.145721 
	C416.434296,272.182343 419.830048,250.144516 435.950684,231.476456 
	C444.922302,221.087143 455.558777,213.649353 468.178589,207.952576 
M477.091827,237.473541 
	C469.474213,241.030228 463.179535,246.254822 458.414093,253.125320 
	C450.782684,264.127838 447.962830,276.167725 449.703979,289.671356 
	C451.045563,300.076324 454.795258,309.161774 461.726074,316.621307 
	C473.356567,329.138977 487.810974,334.421814 505.032440,331.830322 
	C521.946167,329.285095 534.386658,320.852692 541.899414,305.344055 
	C546.527527,295.790100 547.689941,285.900513 546.368835,275.337952 
	C544.364075,259.309204 536.217163,247.417801 522.702148,239.465714 
	C508.371399,231.033707 493.118408,230.876053 477.091827,237.473541 
z"/>
<path fill="#010101" opacity="1.000000" stroke="none" 
	d="
M1235.109375,220.011841 
	C1245.251587,212.617981 1255.759155,206.840378 1267.937622,204.618668 
	C1289.053223,200.766449 1309.215210,202.605469 1327.922729,214.138016 
	C1345.667114,225.076721 1358.205933,240.324905 1363.225830,260.464783 
	C1369.539551,285.795319 1366.773438,310.013855 1350.059204,331.415466 
	C1338.867310,345.745880 1325.023926,356.174133 1307.191162,360.483612 
	C1283.111328,366.302795 1260.045654,363.331848 1239.723755,348.898651 
	C1220.948975,335.564331 1209.681396,317.177979 1206.762329,293.718445 
	C1204.755859,277.593903 1207.159058,262.432648 1213.401123,247.761398 
	C1218.076782,236.772034 1226.217285,228.275406 1235.109375,220.011841 
M1246.854614,313.507660 
	C1259.420044,328.260803 1275.027222,334.957489 1294.519775,331.815826 
	C1307.963501,329.649048 1318.156006,322.643066 1326.039917,311.770233 
	C1335.017456,299.389221 1336.514038,285.526794 1333.735962,271.095032 
	C1329.721191,250.238052 1311.658691,234.744232 1290.462769,233.144119 
	C1277.093018,232.134827 1264.907471,235.256378 1254.406494,244.457458 
	C1243.814697,253.737961 1238.104492,265.123718 1237.049316,278.989777 
	C1236.104248,291.408356 1239.343140,302.725189 1246.854614,313.507660 
z"/>
<path fill="#030303" opacity="1.000000" stroke="none" 
	d="
M890.807129,205.922501 
	C893.612488,205.648804 894.852051,206.102798 894.843994,209.025436 
	C894.743469,245.345108 895.411926,281.681244 894.488342,317.977631 
	C894.087036,333.752014 885.069214,346.338501 871.191040,353.902710 
	C846.706604,367.247772 821.898254,367.107880 798.134827,351.956146 
	C784.888672,343.510345 777.862244,330.831299 777.685486,314.881409 
	C777.289429,279.129669 777.027771,243.376434 776.727295,207.623672 
	C776.723267,207.148270 776.927307,206.671127 777.059814,206.080688 
	C787.213806,206.080688 797.330383,206.080688 807.928223,206.080688 
	C807.928223,208.009613 807.928223,209.788147 807.928223,211.566696 
	C807.928284,243.055099 807.882141,274.543640 807.995850,306.031647 
	C808.007996,309.403900 808.664368,312.847992 809.521118,316.128448 
	C811.665344,324.339355 817.382446,329.044952 825.355408,331.210632 
	C833.105042,333.315643 840.871399,333.316467 848.516357,330.762878 
	C856.725891,328.020752 861.427917,321.898315 863.228638,313.765717 
	C864.215088,309.310883 864.261169,304.589478 864.274536,299.986969 
	C864.359802,270.664673 864.317871,241.342026 864.317932,212.019485 
	C864.317932,210.210419 864.317993,208.401352 864.317993,205.922836 
	C873.155334,205.922836 881.741638,205.922836 890.807129,205.922501 
z"/>
<path fill="#BE1623" opacity="1.000000" stroke="none" 
	d="
M280.017242,359.987396 
	C260.392853,359.757263 243.149170,354.549896 230.195114,339.688904 
	C225.647705,334.472076 222.421814,328.103333 218.320129,321.845062 
	C228.183151,316.035583 236.875595,310.915619 245.590958,305.782135 
	C248.100204,309.622375 250.258774,313.058563 252.549042,316.404572 
	C257.937958,324.277588 265.774963,328.144348 274.981812,328.680756 
	C281.222717,329.044373 287.756012,328.997375 293.762543,327.521942 
	C300.171692,325.947632 304.812378,320.950409 305.115021,314.007477 
	C305.401184,307.441895 301.368011,302.699280 295.371643,300.418488 
	C283.764221,296.003479 271.933411,292.179260 260.285614,287.866058 
	C247.672318,283.195404 235.911880,277.270081 229.695038,264.254089 
	C222.840332,249.902588 224.974518,223.128235 241.139618,211.685654 
	C251.795410,204.142868 262.763367,200.195374 275.747681,199.846008 
	C294.441223,199.343018 309.929230,205.611572 322.316772,219.424545 
	C325.586487,223.070465 328.078583,227.414627 330.918976,231.444351 
	C332.359924,233.488724 332.087646,234.773727 329.685455,236.133377 
	C321.892151,240.544357 314.263489,245.246170 307.035950,249.558807 
	C302.778381,244.762512 299.114288,239.431488 294.310303,235.489700 
	C285.975983,228.651230 275.953064,228.507812 266.281128,231.916595 
	C261.580383,233.573303 258.115295,237.470139 257.575317,243.392349 
	C256.902863,250.767609 260.737427,255.482315 266.552643,257.945465 
	C277.377502,262.530487 288.621979,266.130402 299.715332,270.074219 
	C309.001617,273.375580 317.669769,277.500092 325.083740,284.363403 
	C334.725067,293.288666 337.154846,304.592346 336.576904,316.729004 
	C336.026184,328.294373 331.551758,338.511627 322.503143,346.197693 
	C313.938385,353.472778 303.984528,357.743225 292.795227,358.981567 
	C288.710236,359.433685 284.600128,359.658752 280.017242,359.987396 
z"/>
<path fill="#040404" opacity="1.000000" stroke="none" 
	d="
M989.164856,346.986969 
	C989.164856,309.865845 989.164856,273.242798 989.164856,236.197968 
	C975.598145,236.197968 962.186584,236.197968 948.485229,236.197968 
	C948.485229,226.047913 948.485229,216.312958 948.485229,206.247971 
	C985.966919,206.247971 1023.499634,206.247971 1061.261719,206.247971 
	C1061.261719,216.006287 1061.261719,225.767258 1061.261719,235.977997 
	C1047.738403,235.977997 1034.336670,235.977997 1020.522217,235.977997 
	C1020.522217,277.476349 1020.522217,318.528809 1020.522217,359.785522 
	C1010.003906,359.785522 999.904358,359.785522 989.164856,359.785522 
	C989.164856,355.677551 989.164856,351.581299 989.164856,346.986969 
z"/>
<path fill="#010101" opacity="1.000000" stroke="none" 
	d="
M675.126160,329.834534 
	C692.567749,329.834564 709.523987,329.834564 726.709961,329.834564 
	C726.709961,339.882812 726.709961,349.632568 726.709961,359.687073 
	C696.983154,359.687073 667.274170,359.687073 637.298950,359.687073 
	C637.298950,308.637787 637.298950,257.589050 637.298950,206.233932 
	C647.418030,206.233932 657.618408,206.233932 668.116638,206.233932 
	C668.116638,247.266251 668.116638,288.177917 668.116638,329.834503 
	C670.479980,329.834503 672.560425,329.834503 675.126160,329.834534 
z"/>
<path fill="#050505" opacity="1.000000" stroke="none" 
	d="
M1708.185791,256.999878 
	C1708.185791,239.861633 1708.185791,223.223404 1708.185791,205.917786 
	C1710.165039,205.917786 1711.920654,205.917786 1713.676392,205.917786 
	C1733.003662,205.917847 1752.331177,205.958267 1771.658325,205.906143 
	C1789.468628,205.858109 1808.212646,221.678085 1810.152588,240.864594 
	C1811.354736,252.755066 1808.406738,262.746948 1801.541748,271.852478 
	C1799.183472,274.980469 1795.571167,277.162933 1792.341919,279.940552 
	C1801.546875,284.653290 1809.535156,290.781647 1813.451660,300.802582 
	C1819.225708,315.576355 1818.554443,329.769318 1808.825195,342.846466 
	C1799.856445,354.901428 1787.691650,360.189484 1772.758057,360.046021 
	C1751.766846,359.844330 1730.772095,359.988861 1709.778931,359.974579 
	C1709.460205,359.974365 1709.141479,359.836395 1708.185791,359.615540 
	C1708.185791,325.675140 1708.185791,291.587524 1708.185791,256.999878 
M1788.385742,290.834747 
	C1782.697144,289.527405 1777.040283,287.287292 1771.313843,287.092590 
	C1755.859131,286.567108 1740.375000,286.905548 1724.902466,286.925812 
	C1723.649780,286.927460 1722.397339,287.117188 1721.027710,287.229095 
	C1721.027710,307.200836 1721.025391,326.818634 1721.041504,346.436462 
	C1721.041870,346.895111 1721.248779,347.353546 1721.435059,348.125763 
	C1730.578491,348.125763 1739.692139,348.252014 1748.800781,348.092682 
	C1759.374390,347.907745 1770.036743,348.231628 1780.489990,346.946503 
	C1792.604858,345.457123 1802.620361,333.733154 1803.940674,322.201630 
	C1805.475342,308.798035 1800.365601,298.470703 1788.385742,290.834747 
M1794.073975,260.365723 
	C1795.388184,255.524872 1798.038940,250.607483 1797.766968,245.857468 
	C1796.939453,231.409454 1787.601929,218.943573 1771.765015,217.857681 
	C1755.061523,216.712402 1738.218628,217.600967 1721.229248,217.600967 
	C1721.229248,236.863327 1721.229248,255.764313 1721.229248,274.490326 
	C1721.574707,274.764343 1721.699463,274.950043 1721.824707,274.950348 
	C1736.481567,274.984253 1751.153564,274.601166 1765.790649,275.150116 
	C1778.000977,275.608032 1787.245361,271.280731 1794.073975,260.365723 
z"/>
<path fill="#010101" opacity="1.000000" stroke="none" 
	d="
M1116.046509,351.938049 
	C1116.046509,303.148285 1116.046509,254.848969 1116.046509,206.238693 
	C1126.430420,206.238693 1136.636597,206.238693 1147.037964,206.238693 
	C1147.037964,257.410431 1147.037964,308.472870 1147.037964,359.762451 
	C1136.806274,359.762451 1126.713257,359.762451 1116.046509,359.762451 
	C1116.046509,357.298737 1116.046509,354.863647 1116.046509,351.938049 
z"/>
<path fill="#BE1623" opacity="1.000000" stroke="none" 
	d="
M291.144592,458.706635 
	C294.778992,458.052948 298.433258,457.493225 302.044312,456.729218 
	C316.974945,453.570343 331.892456,450.349579 347.242828,447.059814 
	C347.242828,454.379822 347.511292,462.628784 347.034332,470.834412 
	C346.928894,472.648987 344.495483,475.300873 342.610840,475.888031 
	C325.070312,481.352783 307.593750,487.207855 289.736694,491.412750 
	C275.655029,494.728638 261.259918,492.412506 247.406601,488.492859 
	C235.041412,484.994263 222.854599,480.859344 210.617569,476.916809 
	C205.902405,475.397675 203.503174,472.443726 203.846786,467.028229 
	C204.286346,460.100952 203.953491,453.124695 203.953491,446.336823 
	C215.598923,449.328857 226.854980,452.523315 238.260666,455.039429 
	C245.259949,456.583527 252.488358,457.088837 260.057007,458.725464 
	C270.205811,459.550201 279.911377,459.727844 289.617706,459.819275 
	C290.123108,459.824066 290.635468,459.094391 291.144592,458.706635 
z"/>
<path fill="#BE1623" opacity="1.000000" stroke="none" 
	d="
M424.261230,359.976135 
	C416.189697,374.055603 406.926453,386.928864 395.498993,397.930481 
	C381.261078,411.637817 365.554810,423.464569 346.398529,431.221985 
	C345.894775,419.387817 348.291107,408.628632 355.842407,399.973724 
	C362.393005,392.465790 370.160126,386.014618 377.433502,379.142914 
	C388.916687,368.293854 397.611145,355.421234 404.902405,341.516937 
	C405.573059,340.238037 406.304443,338.990936 407.021912,337.703491 
	C412.921844,345.186035 418.600922,352.388489 424.261230,359.976135 
z"/>
<path fill="#070707" opacity="1.000000" stroke="none" 
	d="
M1895.762207,220.008667 
	C1895.762207,266.807922 1895.762207,313.109222 1895.762207,359.704590 
	C1891.510132,359.704590 1887.581909,359.704590 1883.309814,359.704590 
	C1883.309814,308.695984 1883.309814,257.496216 1883.309814,206.104340 
	C1887.324463,206.104340 1891.261230,206.104340 1895.762207,206.104340 
	C1895.762207,210.624207 1895.762207,215.067459 1895.762207,220.008667 
z"/>
<path fill="#BF1926" opacity="1.000000" stroke="none" 
	d="
M1609.832031,474.996521 
	C1609.832031,462.844696 1609.832031,451.192261 1609.832031,438.990692 
	C1618.647949,438.990692 1627.435059,437.844635 1635.776855,439.282379 
	C1646.074829,441.057312 1650.828613,452.444366 1645.705933,461.159393 
	C1645.125366,462.147034 1644.586426,463.159058 1644.045776,464.128174 
	C1651.537109,472.741791 1651.115967,479.533264 1645.990234,486.665131 
	C1642.952881,490.891144 1638.389160,492.371918 1633.681641,492.620728 
	C1625.898438,493.032013 1618.077515,492.732483 1609.831909,492.732483 
	C1609.831909,486.769958 1609.831909,481.132965 1609.832031,474.996521 
M1629.146973,470.099609 
	C1626.401367,470.099609 1623.655640,470.099609 1620.747437,470.099609 
	C1620.747437,474.258636 1620.747437,477.843170 1620.747437,481.925110 
	C1623.839966,481.925110 1626.775146,481.933197 1629.710449,481.923370 
	C1635.314453,481.904572 1638.308594,479.872589 1637.958862,475.918732 
	C1637.539551,471.178680 1634.273193,469.820892 1629.146973,470.099609 
M1625.422241,449.821075 
	C1623.848755,449.821075 1622.275269,449.821075 1620.809326,449.821075 
	C1620.809326,453.349121 1620.809326,456.115234 1620.809326,459.348419 
	C1624.641846,459.348419 1628.344238,459.842865 1631.799561,459.133728 
	C1633.453613,458.794220 1635.723633,456.179413 1635.730957,454.585968 
	C1635.738281,453.010742 1633.509155,450.934906 1631.766846,449.995789 
	C1630.351685,449.233002 1628.204712,449.828033 1625.422241,449.821075 
z"/>
<path fill="#BF1925" opacity="1.000000" stroke="none" 
	d="
M1668.184814,459.593201 
	C1671.008301,448.981262 1676.873291,441.454803 1687.437134,438.865234 
	C1703.532593,434.919739 1717.490723,441.251251 1722.492920,456.762177 
	C1727.763428,473.104828 1718.458130,488.670868 1702.502808,492.826477 
	C1688.541870,496.462738 1672.229858,487.908936 1669.016357,473.272064 
	C1668.079224,469.003418 1668.429199,464.452118 1668.184814,459.593201 
M1712.091919,462.924866 
	C1711.724487,461.674530 1711.432373,460.396027 1710.977051,459.178528 
	C1708.463257,452.458557 1702.169678,448.495758 1694.650879,448.850403 
	C1688.686157,449.131744 1681.482178,454.538147 1680.047852,459.809784 
	C1677.863037,467.839386 1680.378906,474.852142 1686.378906,479.154419 
	C1691.827393,483.061462 1697.655396,483.014862 1703.074463,480.388580 
	C1709.653320,477.200195 1712.805176,471.343872 1712.091919,462.924866 
z"/>
<path fill="#BE1723" opacity="1.000000" stroke="none" 
	d="
M1571.083740,465.036652 
	C1567.829956,470.424103 1564.558716,475.801056 1561.329468,481.203125 
	C1559.530884,484.211700 1558.220947,483.268738 1557.235596,480.211609 
	C1556.942017,479.120483 1556.455322,478.568085 1555.968628,478.015686 
	C1555.968628,478.015686 1556.000732,478.000244 1555.987305,477.646057 
	C1554.974121,475.865387 1553.974365,474.438934 1552.974487,473.012512 
	C1552.974487,473.012512 1553.000000,472.998779 1552.989502,472.641724 
	C1551.973999,470.862488 1550.968872,469.440277 1549.963745,468.018097 
	C1549.963745,468.018097 1549.998779,467.996918 1549.989502,467.643616 
	C1548.963379,465.872192 1547.946533,464.454041 1546.929688,463.035858 
	C1546.929688,463.035858 1546.988037,462.998871 1546.982056,462.656860 
	C1546.537598,461.262634 1546.098999,460.210449 1545.660522,459.158234 
	C1545.148438,459.196442 1544.636353,459.234650 1544.124146,459.272858 
	C1543.747803,461.239319 1543.083008,463.200500 1543.046875,465.173248 
	C1542.915405,472.317474 1542.820312,479.471588 1543.067505,486.609650 
	C1543.192505,490.219147 1541.811157,491.066711 1538.451050,491.099365 
	C1534.946045,491.133392 1533.903320,489.977631 1533.936523,486.512238 
	C1534.087891,470.724731 1533.995483,454.934814 1533.990601,439.145782 
	C1542.015991,437.395020 1547.273315,440.077423 1550.488892,448.000946 
	C1552.498535,452.952515 1556.097290,457.259155 1559.297607,462.356262 
	C1562.952393,456.589996 1567.111816,451.467407 1569.650879,445.639069 
	C1572.518921,439.056061 1577.163452,438.229828 1583.556152,439.536926 
	C1583.999023,456.823059 1583.999023,473.580688 1583.999023,490.522034 
	C1581.030762,490.522034 1578.693726,490.522034 1576.004883,490.522034 
	C1576.004883,482.253021 1576.071899,474.447571 1575.956421,466.644836 
	C1575.928589,464.763123 1575.296387,462.890350 1574.942139,461.013489 
	C1574.529175,460.988464 1574.116089,460.963440 1573.054810,461.021240 
	C1571.965576,462.414917 1571.524658,463.725800 1571.083740,465.036652 
z"/>
<path fill="#BF1925" opacity="1.000000" stroke="none" 
	d="
M1497.760376,445.965332 
	C1503.251465,461.564545 1508.661621,476.768250 1514.082275,492.001343 
	C1503.706909,494.267578 1503.035645,493.871277 1498.847168,482.951263 
	C1495.004517,482.951263 1491.003540,483.238220 1487.060059,482.884003 
	C1481.127563,482.351135 1476.281738,482.831665 1475.710693,490.381195 
	C1475.647095,491.223480 1474.046509,492.538971 1473.076660,492.616974 
	C1469.656738,492.892151 1466.201050,492.723999 1462.317871,492.723999 
	C1468.373291,475.363159 1474.140747,458.619995 1480.160156,441.967987 
	C1480.637085,440.648773 1482.746460,439.639801 1484.309814,439.078827 
	C1485.638794,438.601959 1487.314209,439.201630 1488.767334,438.940552 
	C1494.170654,437.969818 1497.147583,440.080627 1497.760376,445.965332 
M1492.072998,472.067535 
	C1492.897095,471.295349 1494.565430,470.243835 1494.416382,469.793640 
	C1492.675049,464.530426 1490.660400,459.357605 1488.511597,453.608978 
	C1486.148804,460.092651 1484.052124,465.846161 1481.784790,472.067749 
	C1485.254639,472.067749 1488.217773,472.067749 1492.072998,472.067535 
z"/>
<path fill="#BF1825" opacity="1.000000" stroke="none" 
	d="
M1888.224365,492.733337 
	C1884.723022,493.197937 1883.350830,491.833221 1882.838257,488.794220 
	C1882.522583,486.920715 1881.321045,485.196533 1880.393677,483.130005 
	C1873.931030,483.130005 1867.133667,483.130005 1860.349609,483.130005 
	C1855.793335,493.589355 1855.793335,493.589355 1844.327759,492.232086 
	C1850.508057,474.433197 1856.619141,456.833618 1862.645264,439.479065 
	C1863.092529,439.228271 1863.229614,439.088013 1863.374390,439.079193 
	C1876.767212,438.268860 1876.692993,438.295654 1881.227783,451.182831 
	C1886.016602,464.792175 1890.966064,478.344971 1896.136841,492.733582 
	C1893.173706,492.733582 1890.914307,492.733582 1888.224365,492.733337 
M1868.468506,456.973785 
	C1866.920532,461.873932 1865.372681,466.774109 1863.742310,471.935181 
	C1868.328735,471.935181 1872.419189,471.935181 1876.638916,471.935181 
	C1874.490601,465.808014 1872.393311,459.826172 1869.931885,452.806122 
	C1869.344360,454.811035 1869.125488,455.558044 1868.468506,456.973785 
z"/>
<path fill="#BE1723" opacity="1.000000" stroke="none" 
	d="
M1747.015381,439.087494 
	C1754.837402,439.053772 1762.661743,438.889923 1770.481079,439.018829 
	C1780.559204,439.184937 1790.890747,449.101501 1792.077393,460.107391 
	C1793.157349,470.122375 1791.898193,479.803802 1783.145386,486.355530 
	C1779.603760,489.006409 1775.001953,490.240997 1770.225586,491.908173 
	C1763.463867,491.492767 1757.358887,491.129456 1751.255249,491.151917 
	C1748.110596,491.163483 1746.821289,490.289093 1746.855957,486.931152 
	C1747.020630,470.984436 1746.981689,455.035583 1747.015381,439.087494 
M1765.334839,449.812592 
	C1762.391235,449.812592 1759.447754,449.812592 1756.417480,449.812592 
	C1756.417480,460.736481 1756.417480,471.235687 1756.417480,482.375122 
	C1760.697632,481.869720 1764.588867,481.537872 1768.436646,480.930298 
	C1777.452637,479.506561 1782.105469,473.326172 1781.452026,463.852539 
	C1780.860840,455.281250 1775.127075,449.980255 1765.334839,449.812592 
z"/>
<path fill="#BF1925" opacity="1.000000" stroke="none" 
	d="
M1443.822021,445.207520 
	C1445.163818,447.046143 1446.247437,448.622620 1447.663330,450.682526 
	C1444.150513,452.734009 1441.092896,454.519653 1438.060791,456.290405 
	C1431.207275,446.917450 1418.581299,446.462494 1411.781128,454.033356 
	C1406.003540,460.466003 1406.420288,471.262482 1412.979614,477.677277 
	C1419.327148,483.884796 1428.503418,483.764496 1435.133423,477.509735 
	C1436.251587,476.454773 1438.204712,474.879089 1439.083740,475.236542 
	C1441.861206,476.365936 1444.405884,478.179260 1446.788208,480.049408 
	C1447.148560,480.332306 1446.484009,482.584045 1445.754639,483.492371 
	C1434.662354,497.305206 1411.161865,497.116974 1400.847290,481.657990 
	C1390.323730,465.885925 1397.729858,442.888611 1415.584229,438.738434 
	C1425.584106,436.414062 1435.516724,437.134491 1443.822021,445.207520 
z"/>
<path fill="#BF1824" opacity="1.000000" stroke="none" 
	d="
M1644.007812,288.695953 
	C1637.366333,300.431915 1627.156860,301.082886 1617.938110,298.448242 
	C1611.608887,296.639404 1605.991821,288.488892 1605.916992,281.948669 
	C1605.793213,271.130890 1609.746826,264.351410 1617.468018,261.261810 
	C1625.218384,258.160614 1632.286987,258.965179 1638.598755,264.380981 
	C1646.244141,270.941315 1647.820435,279.065948 1644.007812,288.695953 
z"/>
<path fill="#BF1926" opacity="1.000000" stroke="none" 
	d="
M279.615417,25.296242 
	C289.012512,28.724091 290.884918,31.436419 290.885162,41.066059 
	C290.885254,44.725250 290.886200,48.384438 290.884613,52.043629 
	C290.881500,59.169289 286.820923,64.809532 281.094055,65.298874 
	C271.536163,66.115578 266.925079,64.446152 264.800507,55.037922 
	C263.482269,49.200199 263.849304,42.733150 264.689697,36.720470 
	C265.712128,29.405493 271.223511,25.635237 279.615417,25.296242 
z"/>
<path fill="#BF1926" opacity="1.000000" stroke="none" 
	d="
M26.240467,270.402832 
	C27.443882,264.063232 32.451015,259.573120 38.218105,259.452332 
	C43.375267,259.344330 48.540409,259.306061 53.695053,259.464325 
	C60.856976,259.684174 66.395119,265.393280 66.281242,272.517151 
	C66.160843,280.049500 61.571503,285.635406 53.567844,285.906769 
	C49.577991,286.042053 45.579803,285.931976 41.585388,285.932098 
	C30.738974,285.932404 26.235470,281.498016 26.240467,270.402832 
z"/>
<path fill="#BF1824" opacity="1.000000" stroke="none" 
	d="
M129.872498,117.534119 
	C129.903641,127.289169 127.464951,130.968552 120.013969,133.286087 
	C115.378563,134.727875 111.543488,133.305786 108.241447,130.196198 
	C104.617012,126.783012 101.141632,123.206436 97.691582,119.614365 
	C92.453232,114.160385 92.407082,106.020271 97.498512,101.063217 
	C102.638725,96.058647 111.346161,96.226410 116.630005,101.442581 
	C119.465965,104.242203 122.454994,106.911804 125.055244,109.916733 
	C126.926628,112.079361 128.269623,114.699219 129.872498,117.534119 
z"/>
<path fill="#BE1723" opacity="1.000000" stroke="none" 
	d="
M1814.989136,439.148193 
	C1817.699219,439.101013 1820.409302,439.053864 1823.559204,439.536072 
	C1823.997681,455.380890 1823.920532,470.697021 1824.054199,486.011322 
	C1824.083740,489.389862 1823.637207,491.157898 1819.540039,491.139099 
	C1815.563232,491.120789 1814.904297,489.585602 1814.937622,486.092743 
	C1815.087036,470.445801 1814.994385,454.796600 1814.989136,439.148193 
z"/>
<path fill="#BA0913" opacity="1.000000" stroke="none" 
	d="
M1814.610840,439.175018 
	C1814.994385,454.796600 1815.087036,470.445801 1814.937622,486.092743 
	C1814.904297,489.585602 1815.563232,491.120789 1819.540039,491.139099 
	C1823.637207,491.157898 1824.083740,489.389862 1824.054199,486.011322 
	C1823.920532,470.697021 1823.997681,455.380890 1824.004883,439.606293 
	C1824.436768,439.685211 1825.232788,440.221832 1825.234863,440.761475 
	C1825.300293,457.870026 1825.288696,474.978851 1825.288696,492.379974 
	C1821.401123,492.379974 1817.837402,492.379974 1813.792114,492.379974 
	C1813.792114,483.437408 1813.734985,474.486908 1813.808472,465.537445 
	C1813.880615,456.758331 1814.085693,447.980347 1814.610840,439.175018 
z"/>
<path fill="#BA0B15" opacity="1.000000" stroke="none" 
	d="
M1533.613037,439.174316 
	C1533.995483,454.934814 1534.087891,470.724731 1533.936523,486.512238 
	C1533.903320,489.977631 1534.946045,491.133392 1538.451050,491.099365 
	C1541.811157,491.066711 1543.192505,490.219147 1543.067505,486.609650 
	C1542.820312,479.471588 1542.915405,472.317474 1543.046875,465.173248 
	C1543.083008,463.200500 1543.747803,461.239319 1544.124146,459.272858 
	C1544.636353,459.234650 1545.148438,459.196442 1545.660522,459.158234 
	C1546.098999,460.210449 1546.537598,461.262634 1546.970459,462.689484 
	C1546.300293,462.670288 1545.635498,462.276459 1544.442871,461.569794 
	C1544.442871,472.037415 1544.442871,482.073730 1544.442871,492.391510 
	C1540.434082,492.391510 1536.864624,492.391510 1532.809692,492.391510 
	C1532.809692,483.792572 1532.754395,475.171631 1532.824829,466.551727 
	C1532.899414,457.434937 1533.093628,448.319122 1533.613037,439.174316 
z"/>
<path fill="#BA0913" opacity="1.000000" stroke="none" 
	d="
M1574.881348,461.416351 
	C1575.296387,462.890350 1575.928589,464.763123 1575.956421,466.644836 
	C1576.071899,474.447571 1576.004883,482.253021 1576.004883,490.522034 
	C1578.693726,490.522034 1581.030762,490.522034 1583.999023,490.522034 
	C1583.999023,473.580688 1583.999023,456.823059 1584.004883,439.606293 
	C1584.437622,439.848877 1585.234619,440.549194 1585.237183,441.252472 
	C1585.298706,457.840607 1585.277954,474.429108 1585.248169,491.017487 
	C1585.247314,491.481873 1584.981323,491.945831 1584.801636,492.531769 
	C1581.648438,492.531769 1578.524292,492.531769 1574.820435,492.531769 
	C1574.820435,482.255402 1574.820435,472.037323 1574.881348,461.416351 
z"/>
<path fill="#C73641" opacity="1.000000" stroke="none" 
	d="
M1746.592773,439.061676 
	C1746.981689,455.035583 1747.020630,470.984436 1746.855957,486.931152 
	C1746.821289,490.289093 1748.110596,491.163483 1751.255249,491.151917 
	C1757.358887,491.129456 1763.463867,491.492767 1769.838623,492.034668 
	C1762.049805,492.373047 1753.990845,492.373047 1745.668701,492.373047 
	C1745.543213,491.958649 1745.203247,491.357697 1745.202148,490.756165 
	C1745.172119,474.352173 1745.161987,457.948059 1745.217773,441.544250 
	C1745.220581,440.707031 1745.838623,439.871948 1746.592773,439.061676 
z"/>
<path fill="#B7000B" opacity="1.000000" stroke="none" 
	d="
M290.666382,458.652649 
	C290.635468,459.094391 290.123108,459.824066 289.617706,459.819275 
	C279.911377,459.727844 270.205811,459.550201 260.284546,459.022827 
	C270.108673,458.636414 280.148407,458.617523 290.666382,458.652649 
z"/>
<path fill="#BA0B15" opacity="1.000000" stroke="none" 
	d="
M1547.019165,463.366364 
	C1547.946533,464.454041 1548.963379,465.872192 1549.981201,467.662170 
	C1549.024414,466.588287 1548.066528,465.142578 1547.019165,463.366364 
z"/>
<path fill="#BA0B15" opacity="1.000000" stroke="none" 
	d="
M1550.038940,468.354889 
	C1550.968872,469.440277 1551.973999,470.862488 1552.983276,472.654785 
	C1552.029663,471.580444 1551.071899,470.136078 1550.038940,468.354889 
z"/>
<path fill="#BA0B15" opacity="1.000000" stroke="none" 
	d="
M1553.036621,473.353333 
	C1553.974365,474.438934 1554.974121,475.865387 1555.978760,477.661987 
	C1555.021973,476.586121 1554.060425,475.140137 1553.036621,473.353333 
z"/>
<path fill="#BA0913" opacity="1.000000" stroke="none" 
	d="
M1571.368164,464.864349 
	C1571.524658,463.725800 1571.965576,462.414917 1572.738525,461.062927 
	C1572.597900,462.245178 1572.125244,463.468597 1571.368164,464.864349 
z"/>
<path fill="#BA0B15" opacity="1.000000" stroke="none" 
	d="
M1556.017822,478.315796 
	C1556.455322,478.568085 1556.942017,479.120483 1557.196167,479.844757 
	C1556.664673,479.549713 1556.365723,479.082825 1556.017822,478.315796 
z"/>
<path fill="#FDFDFD" opacity="1.000000" stroke="none" 
	d="
M477.427856,237.271530 
	C493.118408,230.876053 508.371399,231.033707 522.702148,239.465714 
	C536.217163,247.417801 544.364075,259.309204 546.368835,275.337952 
	C547.689941,285.900513 546.527527,295.790100 541.899414,305.344055 
	C534.386658,320.852692 521.946167,329.285095 505.032440,331.830322 
	C487.810974,334.421814 473.356567,329.138977 461.726074,316.621307 
	C454.795258,309.161774 451.045563,300.076324 449.703979,289.671356 
	C447.962830,276.167725 450.782684,264.127838 458.414093,253.125320 
	C463.179535,246.254822 469.474213,241.030228 477.427856,237.271530 
z"/>
<path fill="#FEFEFE" opacity="1.000000" stroke="none" 
	d="
M1246.594971,313.252228 
	C1239.343140,302.725189 1236.104248,291.408356 1237.049316,278.989777 
	C1238.104492,265.123718 1243.814697,253.737961 1254.406494,244.457458 
	C1264.907471,235.256378 1277.093018,232.134827 1290.462769,233.144119 
	C1311.658691,234.744232 1329.721191,250.238052 1333.735962,271.095032 
	C1336.514038,285.526794 1335.017456,299.389221 1326.039917,311.770233 
	C1318.156006,322.643066 1307.963501,329.649048 1294.519775,331.815826 
	C1275.027222,334.957489 1259.420044,328.260803 1246.594971,313.252228 
z"/>
<path fill="#FEFEFE" opacity="1.000000" stroke="none" 
	d="
M1788.727295,290.997925 
	C1800.365601,298.470703 1805.475342,308.798035 1803.940674,322.201630 
	C1802.620361,333.733154 1792.604858,345.457123 1780.489990,346.946503 
	C1770.036743,348.231628 1759.374390,347.907745 1748.800781,348.092682 
	C1739.692139,348.252014 1730.578491,348.125763 1721.435059,348.125763 
	C1721.248779,347.353546 1721.041870,346.895111 1721.041504,346.436462 
	C1721.025391,326.818634 1721.027710,307.200836 1721.027710,287.229095 
	C1722.397339,287.117188 1723.649780,286.927460 1724.902466,286.925812 
	C1740.375000,286.905548 1755.859131,286.567108 1771.313843,287.092590 
	C1777.040283,287.287292 1782.697144,289.527405 1788.727295,290.997925 
z"/>
<path fill="#FEFEFE" opacity="1.000000" stroke="none" 
	d="
M1793.948730,260.720825 
	C1787.245361,271.280731 1778.000977,275.608032 1765.790649,275.150116 
	C1751.153564,274.601166 1736.481567,274.984253 1721.824707,274.950348 
	C1721.699463,274.950043 1721.574707,274.764343 1721.229248,274.490326 
	C1721.229248,255.764313 1721.229248,236.863327 1721.229248,217.600967 
	C1738.218628,217.600967 1755.061523,216.712402 1771.765015,217.857681 
	C1787.601929,218.943573 1796.939453,231.409454 1797.766968,245.857468 
	C1798.038940,250.607483 1795.388184,255.524872 1793.948730,260.720825 
z"/>
<path fill="#FEFBFB" opacity="1.000000" stroke="none" 
	d="
M1629.569824,470.099365 
	C1634.273193,469.820892 1637.539551,471.178680 1637.958862,475.918732 
	C1638.308594,479.872589 1635.314453,481.904572 1629.710449,481.923370 
	C1626.775146,481.933197 1623.839966,481.925110 1620.747437,481.925110 
	C1620.747437,477.843170 1620.747437,474.258636 1620.747437,470.099609 
	C1623.655640,470.099609 1626.401367,470.099609 1629.569824,470.099365 
z"/>
<path fill="#FEFBFB" opacity="1.000000" stroke="none" 
	d="
M1625.902222,449.820984 
	C1628.204712,449.828033 1630.351685,449.233002 1631.766846,449.995789 
	C1633.509155,450.934906 1635.738281,453.010742 1635.730957,454.585968 
	C1635.723633,456.179413 1633.453613,458.794220 1631.799561,459.133728 
	C1628.344238,459.842865 1624.641846,459.348419 1620.809326,459.348419 
	C1620.809326,456.115234 1620.809326,453.349121 1620.809326,449.821075 
	C1622.275269,449.821075 1623.848755,449.821075 1625.902222,449.820984 
z"/>
<path fill="#FFFDFD" opacity="1.000000" stroke="none" 
	d="
M1712.096680,463.356812 
	C1712.805176,471.343872 1709.653320,477.200195 1703.074463,480.388580 
	C1697.655396,483.014862 1691.827393,483.061462 1686.378906,479.154419 
	C1680.378906,474.852142 1677.863037,467.839386 1680.047852,459.809784 
	C1681.482178,454.538147 1688.686157,449.131744 1694.650879,448.850403 
	C1702.169678,448.495758 1708.463257,452.458557 1710.977051,459.178528 
	C1711.432373,460.396027 1711.724487,461.674530 1712.096680,463.356812 
z"/>
<path fill="#FCF5F5" opacity="1.000000" stroke="none" 
	d="
M1491.626953,472.067627 
	C1488.217773,472.067749 1485.254639,472.067749 1481.784790,472.067749 
	C1484.052124,465.846161 1486.148804,460.092651 1488.511597,453.608978 
	C1490.660400,459.357605 1492.675049,464.530426 1494.416382,469.793640 
	C1494.565430,470.243835 1492.897095,471.295349 1491.626953,472.067627 
z"/>
<path fill="#FCF3F4" opacity="1.000000" stroke="none" 
	d="
M1868.687500,456.639404 
	C1869.125488,455.558044 1869.344360,454.811035 1869.931885,452.806122 
	C1872.393311,459.826172 1874.490601,465.808014 1876.638916,471.935181 
	C1872.419189,471.935181 1868.328735,471.935181 1863.742310,471.935181 
	C1865.372681,466.774109 1866.920532,461.873932 1868.687500,456.639404 
z"/>
<path fill="#FEFBFB" opacity="1.000000" stroke="none" 
	d="
M1765.800171,449.812500 
	C1775.127075,449.980255 1780.860840,455.281250 1781.452026,463.852539 
	C1782.105469,473.326172 1777.452637,479.506561 1768.436646,480.930298 
	C1764.588867,481.537872 1760.697632,481.869720 1756.417480,482.375122 
	C1756.417480,471.235687 1756.417480,460.736481 1756.417480,449.812592 
	C1759.447754,449.812592 1762.391235,449.812592 1765.800171,449.812500 
z"/>
</svg>