<svg version="1.1" id="Layer_1" xmlns="http://www.w3.org/2000/svg" xmlns:xlink="http://www.w3.org/1999/xlink" x="0px" y="0px"
	 width="100%" viewBox="0 0 481 529" enable-background="new 0 0 481 529" xml:space="preserve">
<path fill="#FFFFFF" opacity="1.000000" stroke="none" 
	d="
M307.000000,530.000000 
	C204.666687,530.000000 102.833382,530.000000 1.000055,530.000000 
	C1.000036,353.666748 1.000036,177.333466 1.000018,1.000149 
	C161.333237,1.000100 321.666473,1.000100 481.999756,1.000050 
	C481.999847,177.333191 481.999847,353.666382 481.999939,529.999756 
	C423.833344,530.000000 365.666656,530.000000 307.000000,530.000000 
M207.604416,424.100586 
	C204.981308,417.200958 201.638260,410.845764 196.186981,405.584534 
	C185.923264,395.678589 174.924393,386.289215 166.072769,375.213287 
	C143.553055,347.034668 132.770584,314.573151 135.105164,278.300262 
	C135.741562,268.412476 136.941711,258.441498 139.147339,248.797852 
	C144.531616,225.256378 155.898300,204.611496 171.939789,186.638763 
	C187.651917,169.035065 206.636139,155.916992 228.540359,147.158844 
	C252.113388,137.733459 276.660522,134.703873 301.713226,138.177124 
	C321.225189,140.882248 339.769958,147.099060 356.809021,157.338882 
	C374.693817,168.086945 389.943665,181.665497 402.163727,198.642136 
	C418.484558,221.315811 427.656738,246.668182 429.874054,274.382111 
	C431.084045,289.505615 429.715485,304.629456 425.969543,319.407776 
	C419.454102,345.112091 407.650360,367.954773 388.689392,386.765991 
	C380.648834,394.743073 371.780579,401.963715 364.351746,410.458008 
	C356.711578,419.193848 354.176178,430.110687 355.192596,441.909973 
	C422.035339,413.307373 475.646545,330.859619 450.955109,237.656311 
	C431.229095,163.196091 355.654297,95.733536 254.257584,111.206169 
	C174.572067,123.365784 114.122490,189.674622 108.109932,269.167847 
	C104.347023,318.917969 119.231750,362.997650 152.192947,400.465393 
	C168.054886,418.496033 187.142288,432.650513 210.564041,442.936462 
	C209.574585,436.071899 208.766388,430.464905 207.604416,424.100586 
M256.988556,323.486938 
	C254.988083,320.267212 252.987625,317.047455 250.868805,313.637238 
	C241.688889,319.059662 232.813522,324.302216 222.926346,330.142395 
	C227.076843,336.447388 230.467163,342.974884 235.127869,348.413788 
	C248.005737,363.441895 265.154724,369.060486 284.462646,368.953827 
	C289.717682,368.924835 294.999054,368.577850 300.216858,367.949371 
	C311.098572,366.638733 320.758606,362.373718 329.202423,355.323090 
	C338.087769,347.903778 342.817017,338.072754 343.773407,326.939789 
	C344.840363,314.519775 343.037048,302.553131 333.527130,292.902222 
	C325.740143,284.999817 316.161774,280.607941 306.011810,276.937378 
	C294.493896,272.772186 282.721863,269.108124 271.655884,263.948853 
	C259.521973,258.291748 260.540833,245.653290 269.215027,239.381424 
	C276.830109,233.875336 294.086029,234.986908 300.969116,241.592209 
	C305.438782,245.881516 309.268311,250.837860 313.624512,255.766769 
	C321.181335,251.466125 329.387146,246.913376 337.410187,242.058609 
	C338.262543,241.542847 338.742645,238.908478 338.212311,237.849442 
	C334.052582,229.542694 328.189789,222.590317 320.759308,216.953842 
	C305.897644,205.680359 289.205658,203.036407 271.158356,205.952377 
	C257.050659,208.231796 246.056503,215.251480 237.711105,226.705917 
	C231.130402,235.738251 230.655380,246.098740 230.984039,256.681976 
	C231.263641,265.685455 234.453812,273.540161 240.581818,280.013184 
	C250.451126,290.438141 263.639771,294.688629 276.790894,299.058197 
	C285.805725,302.053436 294.824005,305.188904 303.480530,309.066040 
	C310.880829,312.380554 313.553223,319.698486 310.992767,326.511078 
	C309.142639,331.433746 305.355713,334.328522 300.580811,335.965912 
	C292.795227,338.635773 284.707794,338.751831 276.900787,336.787048 
	C269.150208,334.836456 261.761169,331.609680 256.988556,323.486938 
M311.357178,500.995087 
	C323.809753,496.991272 336.269318,493.008881 348.710449,488.969818 
	C352.181091,487.843109 355.706482,486.131714 355.884552,482.103424 
	C356.250092,473.834686 355.994324,465.538452 355.994324,456.774597 
	C306.810181,474.835663 257.990387,474.514587 209.000000,457.173035 
	C209.000000,464.544373 209.328476,471.392883 208.917969,478.196869 
	C208.388763,486.967865 211.282974,487.503693 218.328888,489.960327 
	C219.087509,490.224792 219.995895,490.070496 220.744537,490.351196 
	C237.600052,496.671021 254.603912,502.064911 272.670502,504.248871 
	C285.703033,505.824310 298.041473,503.757355 311.357178,500.995087 
M103.918167,101.008644 
	C95.008049,104.516739 93.449013,116.398643 99.323784,122.784111 
	C102.814072,126.577812 106.479446,130.229462 110.272758,133.720428 
	C114.778130,137.866669 122.313217,138.205200 127.558289,134.783752 
	C132.036880,131.862305 133.700134,125.451416 132.187881,119.541527 
	C130.338257,112.313187 123.875610,109.098427 119.474022,104.129623 
	C115.549599,99.699455 110.331299,98.802681 103.918167,101.008644 
M49.405994,266.000031 
	C44.523827,266.368256 39.509201,266.165070 34.794987,267.257874 
	C29.588915,268.464691 25.329527,275.740021 26.018389,280.593475 
	C26.997599,287.492615 31.771412,292.783234 37.569458,292.956329 
	C43.870346,293.144409 50.187149,293.170380 56.486034,292.951294 
	C62.929455,292.727173 69.023430,284.292572 67.525169,278.039825 
	C65.375214,269.067352 61.004059,266.001068 49.405994,266.000031 
M298.000000,54.156151 
	C298.000000,50.831818 297.858795,47.500038 298.033630,44.184925 
	C298.286316,39.392376 297.442780,35.416271 294.196899,31.290445 
	C290.968811,27.187271 286.703339,26.100847 282.887115,26.377617 
	C278.275940,26.712040 272.947113,29.241995 272.185059,34.629250 
	C271.132080,42.073318 270.734985,49.757351 271.326508,57.238232 
	C271.764984,62.783405 282.450287,68.648315 285.473389,67.980637 
	C291.054108,66.748070 297.644470,62.902039 298.000000,54.156151 
z"/>
<path fill="#BE1522" opacity="1.000000" stroke="none" 
	d="
M207.781311,424.479248 
	C208.766388,430.464905 209.574585,436.071899 210.564041,442.936462 
	C187.142288,432.650513 168.054886,418.496033 152.192947,400.465393 
	C119.231750,362.997650 104.347023,318.917969 108.109932,269.167847 
	C114.122490,189.674622 174.572067,123.365784 254.257584,111.206169 
	C355.654297,95.733536 431.229095,163.196091 450.955109,237.656311 
	C475.646545,330.859619 422.035339,413.307373 355.192596,441.909973 
	C354.176178,430.110687 356.711578,419.193848 364.351746,410.458008 
	C371.780579,401.963715 380.648834,394.743073 388.689392,386.765991 
	C407.650360,367.954773 419.454102,345.112091 425.969543,319.407776 
	C429.715485,304.629456 431.084045,289.505615 429.874054,274.382111 
	C427.656738,246.668182 418.484558,221.315811 402.163727,198.642136 
	C389.943665,181.665497 374.693817,168.086945 356.809021,157.338882 
	C339.769958,147.099060 321.225189,140.882248 301.713226,138.177124 
	C276.660522,134.703873 252.113388,137.733459 228.540359,147.158844 
	C206.636139,155.916992 187.651917,169.035065 171.939789,186.638763 
	C155.898300,204.611496 144.531616,225.256378 139.147339,248.797852 
	C136.941711,258.441498 135.741562,268.412476 135.105164,278.300262 
	C132.770584,314.573151 143.553055,347.034668 166.072769,375.213287 
	C174.924393,386.289215 185.923264,395.678589 196.186981,405.584534 
	C201.638260,410.845764 204.981308,417.200958 207.781311,424.479248 
z"/>
<path fill="#BE1522" opacity="1.000000" stroke="none" 
	d="
M257.245422,323.750214 
	C261.761169,331.609680 269.150208,334.836456 276.900787,336.787048 
	C284.707794,338.751831 292.795227,338.635773 300.580811,335.965912 
	C305.355713,334.328522 309.142639,331.433746 310.992767,326.511078 
	C313.553223,319.698486 310.880829,312.380554 303.480530,309.066040 
	C294.824005,305.188904 285.805725,302.053436 276.790894,299.058197 
	C263.639771,294.688629 250.451126,290.438141 240.581818,280.013184 
	C234.453812,273.540161 231.263641,265.685455 230.984039,256.681976 
	C230.655380,246.098740 231.130402,235.738251 237.711105,226.705917 
	C246.056503,215.251480 257.050659,208.231796 271.158356,205.952377 
	C289.205658,203.036407 305.897644,205.680359 320.759308,216.953842 
	C328.189789,222.590317 334.052582,229.542694 338.212311,237.849442 
	C338.742645,238.908478 338.262543,241.542847 337.410187,242.058609 
	C329.387146,246.913376 321.181335,251.466125 313.624512,255.766769 
	C309.268311,250.837860 305.438782,245.881516 300.969116,241.592209 
	C294.086029,234.986908 276.830109,233.875336 269.215027,239.381424 
	C260.540833,245.653290 259.521973,258.291748 271.655884,263.948853 
	C282.721863,269.108124 294.493896,272.772186 306.011810,276.937378 
	C316.161774,280.607941 325.740143,284.999817 333.527130,292.902222 
	C343.037048,302.553131 344.840363,314.519775 343.773407,326.939789 
	C342.817017,338.072754 338.087769,347.903778 329.202423,355.323090 
	C320.758606,362.373718 311.098572,366.638733 300.216858,367.949371 
	C294.999054,368.577850 289.717682,368.924835 284.462646,368.953827 
	C265.154724,369.060486 248.005737,363.441895 235.127869,348.413788 
	C230.467163,342.974884 227.076843,336.447388 222.926346,330.142395 
	C232.813522,324.302216 241.688889,319.059662 250.868805,313.637238 
	C252.987625,317.047455 254.988083,320.267212 257.245422,323.750214 
z"/>
<path fill="#BE1522" opacity="1.000000" stroke="none" 
	d="
M310.931061,501.001465 
	C298.041473,503.757355 285.703033,505.824310 272.670502,504.248871 
	C254.603912,502.064911 237.600052,496.671021 220.744537,490.351196 
	C219.995895,490.070496 219.087509,490.224792 218.328888,489.960327 
	C211.282974,487.503693 208.388763,486.967865 208.917969,478.196869 
	C209.328476,471.392883 209.000000,464.544373 209.000000,457.173035 
	C257.990387,474.514587 306.810181,474.835663 355.994324,456.774597 
	C355.994324,465.538452 356.250092,473.834686 355.884552,482.103424 
	C355.706482,486.131714 352.181091,487.843109 348.710449,488.969818 
	C336.269318,493.008881 323.809753,496.991272 310.931061,501.001465 
z"/>
<path fill="#BE1522" opacity="1.000000" stroke="none" 
	d="
M104.311600,100.903770 
	C110.331299,98.802681 115.549599,99.699455 119.474022,104.129623 
	C123.875610,109.098427 130.338257,112.313187 132.187881,119.541527 
	C133.700134,125.451416 132.036880,131.862305 127.558289,134.783752 
	C122.313217,138.205200 114.778130,137.866669 110.272758,133.720428 
	C106.479446,130.229462 102.814072,126.577812 99.323784,122.784111 
	C93.449013,116.398643 95.008049,104.516739 104.311600,100.903770 
z"/>
<path fill="#BE1522" opacity="1.000000" stroke="none" 
	d="
M49.883881,266.000000 
	C61.004059,266.001068 65.375214,269.067352 67.525169,278.039825 
	C69.023430,284.292572 62.929455,292.727173 56.486034,292.951294 
	C50.187149,293.170380 43.870346,293.144409 37.569458,292.956329 
	C31.771412,292.783234 26.997599,287.492615 26.018389,280.593475 
	C25.329527,275.740021 29.588915,268.464691 34.794987,267.257874 
	C39.509201,266.165070 44.523827,266.368256 49.883881,266.000000 
z"/>
<path fill="#BE1522" opacity="1.000000" stroke="none" 
	d="
M297.999939,54.611221 
	C297.644470,62.902039 291.054108,66.748070 285.473389,67.980637 
	C282.450287,68.648315 271.764984,62.783405 271.326508,57.238232 
	C270.734985,49.757351 271.132080,42.073318 272.185059,34.629250 
	C272.947113,29.241995 278.275940,26.712040 282.887115,26.377617 
	C286.703339,26.100847 290.968811,27.187271 294.196899,31.290445 
	C297.442780,35.416271 298.286316,39.392376 298.033630,44.184925 
	C297.858795,47.500038 298.000000,50.831818 297.999939,54.611221 
z"/>
</svg>